<?xml version="1.0" encoding="UTF-8" standalone="no"?>
<!DOCTYPE svg PUBLIC "-//W3C//DTD SVG 1.1//EN"
 "http://www.w3.org/Graphics/SVG/1.1/DTD/svg11.dtd">
<!-- Generated by graphviz version 2.38.0 (20140413.2041)
 -->
<!-- Title: Tree Pages: 1 -->
<svg width="564pt" height="401pt"
 viewBox="0.00 0.00 563.50 401.00" xmlns="http://www.w3.org/2000/svg" xmlns:xlink="http://www.w3.org/1999/xlink">
<g id="graph0" class="graph" transform="scale(1 1) rotate(0) translate(4 397)">
<title>Tree</title>
<polygon fill="white" stroke="none" points="-4,4 -4,-397 559.5,-397 559.5,4 -4,4"/>
<!-- 0 -->
<g id="node1" class="node"><title>0</title>
<path fill="#eeaf81" stroke="black" d="M354,-393C354,-393 248,-393 248,-393 242,-393 236,-387 236,-381 236,-381 236,-322 236,-322 236,-316 242,-310 248,-310 248,-310 354,-310 354,-310 360,-310 366,-316 366,-322 366,-322 366,-381 366,-381 366,-387 360,-393 354,-393"/>
<text text-anchor="start" x="271" y="-377.8" font-family="Helvetica,sans-Serif" font-size="14.00">age ≤ 2.5</text>
<text text-anchor="start" x="263.5" y="-362.8" font-family="Helvetica,sans-Serif" font-size="14.00">gini = 0.391</text>
<text text-anchor="start" x="253.5" y="-347.8" font-family="Helvetica,sans-Serif" font-size="14.00">samples = 528</text>
<text text-anchor="start" x="244" y="-332.8" font-family="Helvetica,sans-Serif" font-size="14.00">value = [387, 141]</text>
<text text-anchor="start" x="262" y="-317.8" font-family="Helvetica,sans-Serif" font-size="14.00">class = alive</text>
</g>
<!-- 1 -->
<g id="node2" class="node"><title>1</title>
<path fill="#fae7d9" stroke="black" d="M280,-274C280,-274 182,-274 182,-274 176,-274 170,-268 170,-262 170,-262 170,-203 170,-203 170,-197 176,-191 182,-191 182,-191 280,-191 280,-191 286,-191 292,-197 292,-203 292,-203 292,-262 292,-262 292,-268 286,-274 280,-274"/>
<text text-anchor="start" x="179.5" y="-258.8" font-family="Helvetica,sans-Serif" font-size="14.00">profession ≤ 4.5</text>
<text text-anchor="start" x="193.5" y="-243.8" font-family="Helvetica,sans-Serif" font-size="14.00">gini = 0.494</text>
<text text-anchor="start" x="183.5" y="-228.8" font-family="Helvetica,sans-Serif" font-size="14.00">samples = 206</text>
<text text-anchor="start" x="178" y="-213.8" font-family="Helvetica,sans-Serif" font-size="14.00">value = [114, 92]</text>
<text text-anchor="start" x="192" y="-198.8" font-family="Helvetica,sans-Serif" font-size="14.00">class = alive</text>
</g>
<!-- 0&#45;&gt;1 -->
<g id="edge1" class="edge"><title>0&#45;&gt;1</title>
<path fill="none" stroke="black" d="M276.714,-309.907C271.447,-301.105 265.822,-291.703 260.383,-282.612"/>
<polygon fill="black" stroke="black" points="263.381,-280.805 255.243,-274.021 257.374,-284.399 263.381,-280.805"/>
<text text-anchor="middle" x="249.149" y="-294.567" font-family="Helvetica,sans-Serif" font-size="14.00">True</text>
</g>
<!-- 140 -->
<g id="node9" class="node"><title>140</title>
<path fill="#ea985d" stroke="black" d="M420,-274C420,-274 322,-274 322,-274 316,-274 310,-268 310,-262 310,-262 310,-203 310,-203 310,-197 316,-191 322,-191 322,-191 420,-191 420,-191 426,-191 432,-197 432,-203 432,-203 432,-262 432,-262 432,-268 426,-274 420,-274"/>
<text text-anchor="start" x="318" y="-258.8" font-family="Helvetica,sans-Serif" font-size="14.00">companion ≤ 4.5</text>
<text text-anchor="start" x="333.5" y="-243.8" font-family="Helvetica,sans-Serif" font-size="14.00">gini = 0.258</text>
<text text-anchor="start" x="323.5" y="-228.8" font-family="Helvetica,sans-Serif" font-size="14.00">samples = 322</text>
<text text-anchor="start" x="318" y="-213.8" font-family="Helvetica,sans-Serif" font-size="14.00">value = [273, 49]</text>
<text text-anchor="start" x="332" y="-198.8" font-family="Helvetica,sans-Serif" font-size="14.00">class = alive</text>
</g>
<!-- 0&#45;&gt;140 -->
<g id="edge8" class="edge"><title>0&#45;&gt;140</title>
<path fill="none" stroke="black" d="M325.286,-309.907C330.553,-301.105 336.178,-291.703 341.617,-282.612"/>
<polygon fill="black" stroke="black" points="344.626,-284.399 346.757,-274.021 338.619,-280.805 344.626,-284.399"/>
<text text-anchor="middle" x="352.851" y="-294.567" font-family="Helvetica,sans-Serif" font-size="14.00">False</text>
</g>
<!-- 2 -->
<g id="node3" class="node"><title>2</title>
<path fill="#f8ddc9" stroke="black" d="M140,-155C140,-155 42,-155 42,-155 36,-155 30,-149 30,-143 30,-143 30,-84 30,-84 30,-78 36,-72 42,-72 42,-72 140,-72 140,-72 146,-72 152,-78 152,-84 152,-84 152,-143 152,-143 152,-149 146,-155 140,-155"/>
<text text-anchor="start" x="61" y="-139.8" font-family="Helvetica,sans-Serif" font-size="14.00">age ≤ 1.5</text>
<text text-anchor="start" x="53.5" y="-124.8" font-family="Helvetica,sans-Serif" font-size="14.00">gini = 0.487</text>
<text text-anchor="start" x="43.5" y="-109.8" font-family="Helvetica,sans-Serif" font-size="14.00">samples = 183</text>
<text text-anchor="start" x="38" y="-94.8" font-family="Helvetica,sans-Serif" font-size="14.00">value = [106, 77]</text>
<text text-anchor="start" x="52" y="-79.8" font-family="Helvetica,sans-Serif" font-size="14.00">class = alive</text>
</g>
<!-- 1&#45;&gt;2 -->
<g id="edge2" class="edge"><title>1&#45;&gt;2</title>
<path fill="none" stroke="black" d="M182.428,-190.907C171.134,-181.469 159.017,-171.343 147.418,-161.649"/>
<polygon fill="black" stroke="black" points="149.404,-158.748 139.486,-155.021 144.915,-164.119 149.404,-158.748"/>
</g>
<!-- 127 -->
<g id="node6" class="node"><title>127</title>
<path fill="#a3d1f3" stroke="black" d="M280,-155C280,-155 182,-155 182,-155 176,-155 170,-149 170,-143 170,-143 170,-84 170,-84 170,-78 176,-72 182,-72 182,-72 280,-72 280,-72 286,-72 292,-78 292,-84 292,-84 292,-143 292,-143 292,-149 286,-155 280,-155"/>
<text text-anchor="start" x="178" y="-139.8" font-family="Helvetica,sans-Serif" font-size="14.00">companion ≤ 4.5</text>
<text text-anchor="start" x="193.5" y="-124.8" font-family="Helvetica,sans-Serif" font-size="14.00">gini = 0.454</text>
<text text-anchor="start" x="187.5" y="-109.8" font-family="Helvetica,sans-Serif" font-size="14.00">samples = 23</text>
<text text-anchor="start" x="186.5" y="-94.8" font-family="Helvetica,sans-Serif" font-size="14.00">value = [8, 15]</text>
<text text-anchor="start" x="190" y="-79.8" font-family="Helvetica,sans-Serif" font-size="14.00">class = dead</text>
</g>
<!-- 1&#45;&gt;127 -->
<g id="edge5" class="edge"><title>1&#45;&gt;127</title>
<path fill="none" stroke="black" d="M231,-190.907C231,-182.649 231,-173.864 231,-165.302"/>
<polygon fill="black" stroke="black" points="234.5,-165.021 231,-155.021 227.5,-165.021 234.5,-165.021"/>
</g>
<!-- 3 -->
<g id="node4" class="node"><title>3</title>
<path fill="#c0c0c0" stroke="black" d="M42,-36C42,-36 12,-36 12,-36 6,-36 0,-30 0,-24 0,-24 0,-12 0,-12 0,-6 6,-0 12,-0 12,-0 42,-0 42,-0 48,-0 54,-6 54,-12 54,-12 54,-24 54,-24 54,-30 48,-36 42,-36"/>
<text text-anchor="middle" x="27" y="-14.3" font-family="Helvetica,sans-Serif" font-size="14.00">(...)</text>
</g>
<!-- 2&#45;&gt;3 -->
<g id="edge3" class="edge"><title>2&#45;&gt;3</title>
<path fill="none" stroke="black" d="M63.1148,-71.7615C56.8147,-62.5574 50.2982,-53.0372 44.5641,-44.6601"/>
<polygon fill="black" stroke="black" points="47.4503,-42.6801 38.9137,-36.4051 41.6739,-46.6341 47.4503,-42.6801"/>
</g>
<!-- 112 -->
<g id="node5" class="node"><title>112</title>
<path fill="#c0c0c0" stroke="black" d="M114,-36C114,-36 84,-36 84,-36 78,-36 72,-30 72,-24 72,-24 72,-12 72,-12 72,-6 78,-0 84,-0 84,-0 114,-0 114,-0 120,-0 126,-6 126,-12 126,-12 126,-24 126,-24 126,-30 120,-36 114,-36"/>
<text text-anchor="middle" x="99" y="-14.3" font-family="Helvetica,sans-Serif" font-size="14.00">(...)</text>
</g>
<!-- 2&#45;&gt;112 -->
<g id="edge4" class="edge"><title>2&#45;&gt;112</title>
<path fill="none" stroke="black" d="M94.4856,-71.7615C95.2151,-63.2356 95.9678,-54.4385 96.6445,-46.5299"/>
<polygon fill="black" stroke="black" points="100.145,-46.6671 97.5108,-36.4051 93.1709,-46.0703 100.145,-46.6671"/>
</g>
<!-- 128 -->
<g id="node7" class="node"><title>128</title>
<path fill="#c0c0c0" stroke="black" d="M218,-36C218,-36 188,-36 188,-36 182,-36 176,-30 176,-24 176,-24 176,-12 176,-12 176,-6 182,-0 188,-0 188,-0 218,-0 218,-0 224,-0 230,-6 230,-12 230,-12 230,-24 230,-24 230,-30 224,-36 218,-36"/>
<text text-anchor="middle" x="203" y="-14.3" font-family="Helvetica,sans-Serif" font-size="14.00">(...)</text>
</g>
<!-- 127&#45;&gt;128 -->
<g id="edge6" class="edge"><title>127&#45;&gt;128</title>
<path fill="none" stroke="black" d="M218.8,-71.7615C216.189,-63.0419 213.493,-54.0385 211.083,-45.9921"/>
<polygon fill="black" stroke="black" points="214.434,-44.9807 208.212,-36.4051 207.728,-46.9889 214.434,-44.9807"/>
</g>
<!-- 139 -->
<g id="node8" class="node"><title>139</title>
<path fill="#c0c0c0" stroke="black" d="M290,-36C290,-36 260,-36 260,-36 254,-36 248,-30 248,-24 248,-24 248,-12 248,-12 248,-6 254,-0 260,-0 260,-0 290,-0 290,-0 296,-0 302,-6 302,-12 302,-12 302,-24 302,-24 302,-30 296,-36 290,-36"/>
<text text-anchor="middle" x="275" y="-14.3" font-family="Helvetica,sans-Serif" font-size="14.00">(...)</text>
</g>
<!-- 127&#45;&gt;139 -->
<g id="edge7" class="edge"><title>127&#45;&gt;139</title>
<path fill="none" stroke="black" d="M250.171,-71.7615C254.366,-62.8481 258.7,-53.6382 262.55,-45.4571"/>
<polygon fill="black" stroke="black" points="265.718,-46.9436 266.809,-36.4051 259.384,-43.963 265.718,-46.9436"/>
</g>
<!-- 141 -->
<g id="node10" class="node"><title>141</title>
<path fill="#e89253" stroke="black" d="M420,-155C420,-155 322,-155 322,-155 316,-155 310,-149 310,-143 310,-143 310,-84 310,-84 310,-78 316,-72 322,-72 322,-72 420,-72 420,-72 426,-72 432,-78 432,-84 432,-84 432,-143 432,-143 432,-149 426,-155 420,-155"/>
<text text-anchor="start" x="341" y="-139.8" font-family="Helvetica,sans-Serif" font-size="14.00">age ≤ 4.5</text>
<text text-anchor="start" x="333.5" y="-124.8" font-family="Helvetica,sans-Serif" font-size="14.00">gini = 0.206</text>
<text text-anchor="start" x="323.5" y="-109.8" font-family="Helvetica,sans-Serif" font-size="14.00">samples = 309</text>
<text text-anchor="start" x="318" y="-94.8" font-family="Helvetica,sans-Serif" font-size="14.00">value = [273, 36]</text>
<text text-anchor="start" x="332" y="-79.8" font-family="Helvetica,sans-Serif" font-size="14.00">class = alive</text>
</g>
<!-- 140&#45;&gt;141 -->
<g id="edge9" class="edge"><title>140&#45;&gt;141</title>
<path fill="none" stroke="black" d="M371,-190.907C371,-182.649 371,-173.864 371,-165.302"/>
<polygon fill="black" stroke="black" points="374.5,-165.021 371,-155.021 367.5,-165.021 374.5,-165.021"/>
</g>
<!-- 210 -->
<g id="node13" class="node"><title>210</title>
<path fill="#399de5" stroke="black" d="M543.5,-147.5C543.5,-147.5 462.5,-147.5 462.5,-147.5 456.5,-147.5 450.5,-141.5 450.5,-135.5 450.5,-135.5 450.5,-91.5 450.5,-91.5 450.5,-85.5 456.5,-79.5 462.5,-79.5 462.5,-79.5 543.5,-79.5 543.5,-79.5 549.5,-79.5 555.5,-85.5 555.5,-91.5 555.5,-91.5 555.5,-135.5 555.5,-135.5 555.5,-141.5 549.5,-147.5 543.5,-147.5"/>
<text text-anchor="start" x="474" y="-132.3" font-family="Helvetica,sans-Serif" font-size="14.00">gini = 0.0</text>
<text text-anchor="start" x="459.5" y="-117.3" font-family="Helvetica,sans-Serif" font-size="14.00">samples = 13</text>
<text text-anchor="start" x="458.5" y="-102.3" font-family="Helvetica,sans-Serif" font-size="14.00">value = [0, 13]</text>
<text text-anchor="start" x="462" y="-87.3" font-family="Helvetica,sans-Serif" font-size="14.00">class = dead</text>
</g>
<!-- 140&#45;&gt;210 -->
<g id="edge12" class="edge"><title>140&#45;&gt;210</title>
<path fill="none" stroke="black" d="M416.797,-190.907C430.117,-179.101 444.653,-166.217 457.929,-154.45"/>
<polygon fill="black" stroke="black" points="460.419,-156.919 465.581,-147.667 455.776,-151.681 460.419,-156.919"/>
</g>
<!-- 142 -->
<g id="node11" class="node"><title>142</title>
<path fill="#c0c0c0" stroke="black" d="M378,-36C378,-36 348,-36 348,-36 342,-36 336,-30 336,-24 336,-24 336,-12 336,-12 336,-6 342,-0 348,-0 348,-0 378,-0 378,-0 384,-0 390,-6 390,-12 390,-12 390,-24 390,-24 390,-30 384,-36 378,-36"/>
<text text-anchor="middle" x="363" y="-14.3" font-family="Helvetica,sans-Serif" font-size="14.00">(...)</text>
</g>
<!-- 141&#45;&gt;142 -->
<g id="edge10" class="edge"><title>141&#45;&gt;142</title>
<path fill="none" stroke="black" d="M367.514,-71.7615C366.785,-63.2356 366.032,-54.4385 365.355,-46.5299"/>
<polygon fill="black" stroke="black" points="368.829,-46.0703 364.489,-36.4051 361.855,-46.6671 368.829,-46.0703"/>
</g>
<!-- 201 -->
<g id="node12" class="node"><title>201</title>
<path fill="#c0c0c0" stroke="black" d="M450,-36C450,-36 420,-36 420,-36 414,-36 408,-30 408,-24 408,-24 408,-12 408,-12 408,-6 414,-0 420,-0 420,-0 450,-0 450,-0 456,-0 462,-6 462,-12 462,-12 462,-24 462,-24 462,-30 456,-36 450,-36"/>
<text text-anchor="middle" x="435" y="-14.3" font-family="Helvetica,sans-Serif" font-size="14.00">(...)</text>
</g>
<!-- 141&#45;&gt;201 -->
<g id="edge11" class="edge"><title>141&#45;&gt;201</title>
<path fill="none" stroke="black" d="M398.885,-71.7615C405.185,-62.5574 411.702,-53.0372 417.436,-44.6601"/>
<polygon fill="black" stroke="black" points="420.326,-46.6341 423.086,-36.4051 414.55,-42.6801 420.326,-46.6341"/>
</g>
</g>
</svg>
