<?xml version="1.0" encoding="utf-8" standalone="no"?>
<!DOCTYPE svg PUBLIC "-//W3C//DTD SVG 1.1//EN"
  "http://www.w3.org/Graphics/SVG/1.1/DTD/svg11.dtd">
<!-- Created with matplotlib (https://matplotlib.org/) -->
<svg height="576pt" version="1.1" viewBox="0 0 864 576" width="864pt" xmlns="http://www.w3.org/2000/svg" xmlns:xlink="http://www.w3.org/1999/xlink">
 <defs>
  <style type="text/css">
*{stroke-linecap:butt;stroke-linejoin:round;}
  </style>
 </defs>
 <g id="figure_1">
  <g id="patch_1">
   <path d="M 0 576 
L 864 576 
L 864 0 
L 0 0 
z
" style="fill:#ffffff;"/>
  </g>
  <g id="axes_1">
   <g id="patch_2">
    <path d="M 108 266.792727 
L 253.565217 266.792727 
L 253.565217 69.12 
L 108 69.12 
z
" style="fill:#ffffff;"/>
   </g>
   <g id="patch_3">
    <path clip-path="url(#pfb0de145b9)" d="M 110.911304 266.792727 
L 122.556522 266.792727 
L 122.556522 162.649041 
L 110.911304 162.649041 
z
" style="fill:#3274a1;"/>
   </g>
   <g id="patch_4">
    <path clip-path="url(#pfb0de145b9)" d="M 140.024348 266.792727 
L 151.669565 266.792727 
L 151.669565 240.756806 
L 140.024348 240.756806 
z
" style="fill:#3274a1;"/>
   </g>
   <g id="patch_5">
    <path clip-path="url(#pfb0de145b9)" d="M 169.137391 266.792727 
L 180.782609 266.792727 
L 180.782609 78.532987 
L 169.137391 78.532987 
z
" style="fill:#3274a1;"/>
   </g>
   <g id="patch_6">
    <path clip-path="url(#pfb0de145b9)" d="M 198.250435 266.792727 
L 209.895652 266.792727 
L 209.895652 162.649041 
L 198.250435 162.649041 
z
" style="fill:#3274a1;"/>
   </g>
   <g id="patch_7">
    <path clip-path="url(#pfb0de145b9)" d="M 227.363478 266.792727 
L 239.008696 266.792727 
L 239.008696 261.785819 
L 227.363478 261.785819 
z
" style="fill:#3274a1;"/>
   </g>
   <g id="patch_8">
    <path clip-path="url(#pfb0de145b9)" d="M 122.556522 266.792727 
L 134.201739 266.792727 
L 134.201739 174.66562 
L 122.556522 174.66562 
z
" style="fill:#e1812c;"/>
   </g>
   <g id="patch_9">
    <path clip-path="url(#pfb0de145b9)" d="M 151.669565 266.792727 
L 163.314783 266.792727 
L 163.314783 254.776148 
L 151.669565 254.776148 
z
" style="fill:#e1812c;"/>
   </g>
   <g id="patch_10">
    <path clip-path="url(#pfb0de145b9)" d="M 180.782609 266.792727 
L 192.427826 266.792727 
L 192.427826 239.755424 
L 180.782609 239.755424 
z
" style="fill:#e1812c;"/>
   </g>
   <g id="patch_11">
    <path clip-path="url(#pfb0de145b9)" d="M 209.895652 266.792727 
L 221.54087 266.792727 
L 221.54087 244.762332 
L 209.895652 244.762332 
z
" style="fill:#e1812c;"/>
   </g>
   <g id="patch_12">
    <path clip-path="url(#pfb0de145b9)" d="M 239.008696 266.792727 
L 250.653913 266.792727 
L 250.653913 259.783056 
L 239.008696 259.783056 
z
" style="fill:#e1812c;"/>
   </g>
   <g id="matplotlib.axis_1">
    <g id="xtick_1">
     <g id="line2d_1">
      <defs>
       <path d="M 0 0 
L 0 3.5 
" id="m8f53496a68" style="stroke:#000000;stroke-width:0.8;"/>
      </defs>
      <g>
       <use style="stroke:#000000;stroke-width:0.8;" x="122.556522" xlink:href="#m8f53496a68" y="266.792727"/>
      </g>
     </g>
     <g id="text_1">
      <!-- 1 -->
      <defs>
       <path d="M 12.40625 8.296875 
L 28.515625 8.296875 
L 28.515625 63.921875 
L 10.984375 60.40625 
L 10.984375 69.390625 
L 28.421875 72.90625 
L 38.28125 72.90625 
L 38.28125 8.296875 
L 54.390625 8.296875 
L 54.390625 0 
L 12.40625 0 
z
" id="DejaVuSans-49"/>
      </defs>
      <g transform="translate(119.375272 281.391165)scale(0.1 -0.1)">
       <use xlink:href="#DejaVuSans-49"/>
      </g>
     </g>
    </g>
    <g id="xtick_2">
     <g id="line2d_2">
      <g>
       <use style="stroke:#000000;stroke-width:0.8;" x="151.669565" xlink:href="#m8f53496a68" y="266.792727"/>
      </g>
     </g>
     <g id="text_2">
      <!-- 2 -->
      <defs>
       <path d="M 19.1875 8.296875 
L 53.609375 8.296875 
L 53.609375 0 
L 7.328125 0 
L 7.328125 8.296875 
Q 12.9375 14.109375 22.625 23.890625 
Q 32.328125 33.6875 34.8125 36.53125 
Q 39.546875 41.84375 41.421875 45.53125 
Q 43.3125 49.21875 43.3125 52.78125 
Q 43.3125 58.59375 39.234375 62.25 
Q 35.15625 65.921875 28.609375 65.921875 
Q 23.96875 65.921875 18.8125 64.3125 
Q 13.671875 62.703125 7.8125 59.421875 
L 7.8125 69.390625 
Q 13.765625 71.78125 18.9375 73 
Q 24.125 74.21875 28.421875 74.21875 
Q 39.75 74.21875 46.484375 68.546875 
Q 53.21875 62.890625 53.21875 53.421875 
Q 53.21875 48.921875 51.53125 44.890625 
Q 49.859375 40.875 45.40625 35.40625 
Q 44.1875 33.984375 37.640625 27.21875 
Q 31.109375 20.453125 19.1875 8.296875 
z
" id="DejaVuSans-50"/>
      </defs>
      <g transform="translate(148.488315 281.391165)scale(0.1 -0.1)">
       <use xlink:href="#DejaVuSans-50"/>
      </g>
     </g>
    </g>
    <g id="xtick_3">
     <g id="line2d_3">
      <g>
       <use style="stroke:#000000;stroke-width:0.8;" x="180.782609" xlink:href="#m8f53496a68" y="266.792727"/>
      </g>
     </g>
     <g id="text_3">
      <!-- 3 -->
      <defs>
       <path d="M 40.578125 39.3125 
Q 47.65625 37.796875 51.625 33 
Q 55.609375 28.21875 55.609375 21.1875 
Q 55.609375 10.40625 48.1875 4.484375 
Q 40.765625 -1.421875 27.09375 -1.421875 
Q 22.515625 -1.421875 17.65625 -0.515625 
Q 12.796875 0.390625 7.625 2.203125 
L 7.625 11.71875 
Q 11.71875 9.328125 16.59375 8.109375 
Q 21.484375 6.890625 26.8125 6.890625 
Q 36.078125 6.890625 40.9375 10.546875 
Q 45.796875 14.203125 45.796875 21.1875 
Q 45.796875 27.640625 41.28125 31.265625 
Q 36.765625 34.90625 28.71875 34.90625 
L 20.21875 34.90625 
L 20.21875 43.015625 
L 29.109375 43.015625 
Q 36.375 43.015625 40.234375 45.921875 
Q 44.09375 48.828125 44.09375 54.296875 
Q 44.09375 59.90625 40.109375 62.90625 
Q 36.140625 65.921875 28.71875 65.921875 
Q 24.65625 65.921875 20.015625 65.03125 
Q 15.375 64.15625 9.8125 62.3125 
L 9.8125 71.09375 
Q 15.4375 72.65625 20.34375 73.4375 
Q 25.25 74.21875 29.59375 74.21875 
Q 40.828125 74.21875 47.359375 69.109375 
Q 53.90625 64.015625 53.90625 55.328125 
Q 53.90625 49.265625 50.4375 45.09375 
Q 46.96875 40.921875 40.578125 39.3125 
z
" id="DejaVuSans-51"/>
      </defs>
      <g transform="translate(177.601359 281.391165)scale(0.1 -0.1)">
       <use xlink:href="#DejaVuSans-51"/>
      </g>
     </g>
    </g>
    <g id="xtick_4">
     <g id="line2d_4">
      <g>
       <use style="stroke:#000000;stroke-width:0.8;" x="209.895652" xlink:href="#m8f53496a68" y="266.792727"/>
      </g>
     </g>
     <g id="text_4">
      <!-- 4 -->
      <defs>
       <path d="M 37.796875 64.3125 
L 12.890625 25.390625 
L 37.796875 25.390625 
z
M 35.203125 72.90625 
L 47.609375 72.90625 
L 47.609375 25.390625 
L 58.015625 25.390625 
L 58.015625 17.1875 
L 47.609375 17.1875 
L 47.609375 0 
L 37.796875 0 
L 37.796875 17.1875 
L 4.890625 17.1875 
L 4.890625 26.703125 
z
" id="DejaVuSans-52"/>
      </defs>
      <g transform="translate(206.714402 281.391165)scale(0.1 -0.1)">
       <use xlink:href="#DejaVuSans-52"/>
      </g>
     </g>
    </g>
    <g id="xtick_5">
     <g id="line2d_5">
      <g>
       <use style="stroke:#000000;stroke-width:0.8;" x="239.008696" xlink:href="#m8f53496a68" y="266.792727"/>
      </g>
     </g>
     <g id="text_5">
      <!-- 5 -->
      <defs>
       <path d="M 10.796875 72.90625 
L 49.515625 72.90625 
L 49.515625 64.59375 
L 19.828125 64.59375 
L 19.828125 46.734375 
Q 21.96875 47.46875 24.109375 47.828125 
Q 26.265625 48.1875 28.421875 48.1875 
Q 40.625 48.1875 47.75 41.5 
Q 54.890625 34.8125 54.890625 23.390625 
Q 54.890625 11.625 47.5625 5.09375 
Q 40.234375 -1.421875 26.90625 -1.421875 
Q 22.3125 -1.421875 17.546875 -0.640625 
Q 12.796875 0.140625 7.71875 1.703125 
L 7.71875 11.625 
Q 12.109375 9.234375 16.796875 8.0625 
Q 21.484375 6.890625 26.703125 6.890625 
Q 35.15625 6.890625 40.078125 11.328125 
Q 45.015625 15.765625 45.015625 23.390625 
Q 45.015625 31 40.078125 35.4375 
Q 35.15625 39.890625 26.703125 39.890625 
Q 22.75 39.890625 18.8125 39.015625 
Q 14.890625 38.140625 10.796875 36.28125 
z
" id="DejaVuSans-53"/>
      </defs>
      <g transform="translate(235.827446 281.391165)scale(0.1 -0.1)">
       <use xlink:href="#DejaVuSans-53"/>
      </g>
     </g>
    </g>
    <g id="text_6">
     <!-- age -->
     <defs>
      <path d="M 34.28125 27.484375 
Q 23.390625 27.484375 19.1875 25 
Q 14.984375 22.515625 14.984375 16.5 
Q 14.984375 11.71875 18.140625 8.90625 
Q 21.296875 6.109375 26.703125 6.109375 
Q 34.1875 6.109375 38.703125 11.40625 
Q 43.21875 16.703125 43.21875 25.484375 
L 43.21875 27.484375 
z
M 52.203125 31.203125 
L 52.203125 0 
L 43.21875 0 
L 43.21875 8.296875 
Q 40.140625 3.328125 35.546875 0.953125 
Q 30.953125 -1.421875 24.3125 -1.421875 
Q 15.921875 -1.421875 10.953125 3.296875 
Q 6 8.015625 6 15.921875 
Q 6 25.140625 12.171875 29.828125 
Q 18.359375 34.515625 30.609375 34.515625 
L 43.21875 34.515625 
L 43.21875 35.40625 
Q 43.21875 41.609375 39.140625 45 
Q 35.0625 48.390625 27.6875 48.390625 
Q 23 48.390625 18.546875 47.265625 
Q 14.109375 46.140625 10.015625 43.890625 
L 10.015625 52.203125 
Q 14.9375 54.109375 19.578125 55.046875 
Q 24.21875 56 28.609375 56 
Q 40.484375 56 46.34375 49.84375 
Q 52.203125 43.703125 52.203125 31.203125 
z
" id="DejaVuSans-97"/>
      <path d="M 45.40625 27.984375 
Q 45.40625 37.75 41.375 43.109375 
Q 37.359375 48.484375 30.078125 48.484375 
Q 22.859375 48.484375 18.828125 43.109375 
Q 14.796875 37.75 14.796875 27.984375 
Q 14.796875 18.265625 18.828125 12.890625 
Q 22.859375 7.515625 30.078125 7.515625 
Q 37.359375 7.515625 41.375 12.890625 
Q 45.40625 18.265625 45.40625 27.984375 
z
M 54.390625 6.78125 
Q 54.390625 -7.171875 48.1875 -13.984375 
Q 42 -20.796875 29.203125 -20.796875 
Q 24.46875 -20.796875 20.265625 -20.09375 
Q 16.0625 -19.390625 12.109375 -17.921875 
L 12.109375 -9.1875 
Q 16.0625 -11.328125 19.921875 -12.34375 
Q 23.78125 -13.375 27.78125 -13.375 
Q 36.625 -13.375 41.015625 -8.765625 
Q 45.40625 -4.15625 45.40625 5.171875 
L 45.40625 9.625 
Q 42.625 4.78125 38.28125 2.390625 
Q 33.9375 0 27.875 0 
Q 17.828125 0 11.671875 7.65625 
Q 5.515625 15.328125 5.515625 27.984375 
Q 5.515625 40.671875 11.671875 48.328125 
Q 17.828125 56 27.875 56 
Q 33.9375 56 38.28125 53.609375 
Q 42.625 51.21875 45.40625 46.390625 
L 45.40625 54.6875 
L 54.390625 54.6875 
z
" id="DejaVuSans-103"/>
      <path d="M 56.203125 29.59375 
L 56.203125 25.203125 
L 14.890625 25.203125 
Q 15.484375 15.921875 20.484375 11.0625 
Q 25.484375 6.203125 34.421875 6.203125 
Q 39.59375 6.203125 44.453125 7.46875 
Q 49.3125 8.734375 54.109375 11.28125 
L 54.109375 2.78125 
Q 49.265625 0.734375 44.1875 -0.34375 
Q 39.109375 -1.421875 33.890625 -1.421875 
Q 20.796875 -1.421875 13.15625 6.1875 
Q 5.515625 13.8125 5.515625 26.8125 
Q 5.515625 40.234375 12.765625 48.109375 
Q 20.015625 56 32.328125 56 
Q 43.359375 56 49.78125 48.890625 
Q 56.203125 41.796875 56.203125 29.59375 
z
M 47.21875 32.234375 
Q 47.125 39.59375 43.09375 43.984375 
Q 39.0625 48.390625 32.421875 48.390625 
Q 24.90625 48.390625 20.390625 44.140625 
Q 15.875 39.890625 15.1875 32.171875 
z
" id="DejaVuSans-101"/>
     </defs>
     <g transform="translate(171.467765 295.06929)scale(0.1 -0.1)">
      <use xlink:href="#DejaVuSans-97"/>
      <use x="61.279297" xlink:href="#DejaVuSans-103"/>
      <use x="124.755859" xlink:href="#DejaVuSans-101"/>
     </g>
    </g>
   </g>
   <g id="matplotlib.axis_2">
    <g id="ytick_1">
     <g id="line2d_6">
      <defs>
       <path d="M 0 0 
L -3.5 0 
" id="mb02ba61362" style="stroke:#000000;stroke-width:0.8;"/>
      </defs>
      <g>
       <use style="stroke:#000000;stroke-width:0.8;" x="108" xlink:href="#mb02ba61362" y="266.792727"/>
      </g>
     </g>
     <g id="text_7">
      <!-- 0 -->
      <defs>
       <path d="M 31.78125 66.40625 
Q 24.171875 66.40625 20.328125 58.90625 
Q 16.5 51.421875 16.5 36.375 
Q 16.5 21.390625 20.328125 13.890625 
Q 24.171875 6.390625 31.78125 6.390625 
Q 39.453125 6.390625 43.28125 13.890625 
Q 47.125 21.390625 47.125 36.375 
Q 47.125 51.421875 43.28125 58.90625 
Q 39.453125 66.40625 31.78125 66.40625 
z
M 31.78125 74.21875 
Q 44.046875 74.21875 50.515625 64.515625 
Q 56.984375 54.828125 56.984375 36.375 
Q 56.984375 17.96875 50.515625 8.265625 
Q 44.046875 -1.421875 31.78125 -1.421875 
Q 19.53125 -1.421875 13.0625 8.265625 
Q 6.59375 17.96875 6.59375 36.375 
Q 6.59375 54.828125 13.0625 64.515625 
Q 19.53125 74.21875 31.78125 74.21875 
z
" id="DejaVuSans-48"/>
      </defs>
      <g transform="translate(94.6375 270.591946)scale(0.1 -0.1)">
       <use xlink:href="#DejaVuSans-48"/>
      </g>
     </g>
    </g>
    <g id="ytick_2">
     <g id="line2d_7">
      <g>
       <use style="stroke:#000000;stroke-width:0.8;" x="108" xlink:href="#mb02ba61362" y="241.758187"/>
      </g>
     </g>
     <g id="text_8">
      <!-- 25 -->
      <g transform="translate(88.275 245.557406)scale(0.1 -0.1)">
       <use xlink:href="#DejaVuSans-50"/>
       <use x="63.623047" xlink:href="#DejaVuSans-53"/>
      </g>
     </g>
    </g>
    <g id="ytick_3">
     <g id="line2d_8">
      <g>
       <use style="stroke:#000000;stroke-width:0.8;" x="108" xlink:href="#mb02ba61362" y="216.723647"/>
      </g>
     </g>
     <g id="text_9">
      <!-- 50 -->
      <g transform="translate(88.275 220.522866)scale(0.1 -0.1)">
       <use xlink:href="#DejaVuSans-53"/>
       <use x="63.623047" xlink:href="#DejaVuSans-48"/>
      </g>
     </g>
    </g>
    <g id="ytick_4">
     <g id="line2d_9">
      <g>
       <use style="stroke:#000000;stroke-width:0.8;" x="108" xlink:href="#mb02ba61362" y="191.689107"/>
      </g>
     </g>
     <g id="text_10">
      <!-- 75 -->
      <defs>
       <path d="M 8.203125 72.90625 
L 55.078125 72.90625 
L 55.078125 68.703125 
L 28.609375 0 
L 18.3125 0 
L 43.21875 64.59375 
L 8.203125 64.59375 
z
" id="DejaVuSans-55"/>
      </defs>
      <g transform="translate(88.275 195.488326)scale(0.1 -0.1)">
       <use xlink:href="#DejaVuSans-55"/>
       <use x="63.623047" xlink:href="#DejaVuSans-53"/>
      </g>
     </g>
    </g>
    <g id="ytick_5">
     <g id="line2d_10">
      <g>
       <use style="stroke:#000000;stroke-width:0.8;" x="108" xlink:href="#mb02ba61362" y="166.654568"/>
      </g>
     </g>
     <g id="text_11">
      <!-- 100 -->
      <g transform="translate(81.9125 170.453786)scale(0.1 -0.1)">
       <use xlink:href="#DejaVuSans-49"/>
       <use x="63.623047" xlink:href="#DejaVuSans-48"/>
       <use x="127.246094" xlink:href="#DejaVuSans-48"/>
      </g>
     </g>
    </g>
    <g id="ytick_6">
     <g id="line2d_11">
      <g>
       <use style="stroke:#000000;stroke-width:0.8;" x="108" xlink:href="#mb02ba61362" y="141.620028"/>
      </g>
     </g>
     <g id="text_12">
      <!-- 125 -->
      <g transform="translate(81.9125 145.419246)scale(0.1 -0.1)">
       <use xlink:href="#DejaVuSans-49"/>
       <use x="63.623047" xlink:href="#DejaVuSans-50"/>
       <use x="127.246094" xlink:href="#DejaVuSans-53"/>
      </g>
     </g>
    </g>
    <g id="ytick_7">
     <g id="line2d_12">
      <g>
       <use style="stroke:#000000;stroke-width:0.8;" x="108" xlink:href="#mb02ba61362" y="116.585488"/>
      </g>
     </g>
     <g id="text_13">
      <!-- 150 -->
      <g transform="translate(81.9125 120.384706)scale(0.1 -0.1)">
       <use xlink:href="#DejaVuSans-49"/>
       <use x="63.623047" xlink:href="#DejaVuSans-53"/>
       <use x="127.246094" xlink:href="#DejaVuSans-48"/>
      </g>
     </g>
    </g>
    <g id="ytick_8">
     <g id="line2d_13">
      <g>
       <use style="stroke:#000000;stroke-width:0.8;" x="108" xlink:href="#mb02ba61362" y="91.550948"/>
      </g>
     </g>
     <g id="text_14">
      <!-- 175 -->
      <g transform="translate(81.9125 95.350167)scale(0.1 -0.1)">
       <use xlink:href="#DejaVuSans-49"/>
       <use x="63.623047" xlink:href="#DejaVuSans-55"/>
       <use x="127.246094" xlink:href="#DejaVuSans-53"/>
      </g>
     </g>
    </g>
    <g id="text_15">
     <!-- count -->
     <defs>
      <path d="M 48.78125 52.59375 
L 48.78125 44.1875 
Q 44.96875 46.296875 41.140625 47.34375 
Q 37.3125 48.390625 33.40625 48.390625 
Q 24.65625 48.390625 19.8125 42.84375 
Q 14.984375 37.3125 14.984375 27.296875 
Q 14.984375 17.28125 19.8125 11.734375 
Q 24.65625 6.203125 33.40625 6.203125 
Q 37.3125 6.203125 41.140625 7.25 
Q 44.96875 8.296875 48.78125 10.40625 
L 48.78125 2.09375 
Q 45.015625 0.34375 40.984375 -0.53125 
Q 36.96875 -1.421875 32.421875 -1.421875 
Q 20.0625 -1.421875 12.78125 6.34375 
Q 5.515625 14.109375 5.515625 27.296875 
Q 5.515625 40.671875 12.859375 48.328125 
Q 20.21875 56 33.015625 56 
Q 37.15625 56 41.109375 55.140625 
Q 45.0625 54.296875 48.78125 52.59375 
z
" id="DejaVuSans-99"/>
      <path d="M 30.609375 48.390625 
Q 23.390625 48.390625 19.1875 42.75 
Q 14.984375 37.109375 14.984375 27.296875 
Q 14.984375 17.484375 19.15625 11.84375 
Q 23.34375 6.203125 30.609375 6.203125 
Q 37.796875 6.203125 41.984375 11.859375 
Q 46.1875 17.53125 46.1875 27.296875 
Q 46.1875 37.015625 41.984375 42.703125 
Q 37.796875 48.390625 30.609375 48.390625 
z
M 30.609375 56 
Q 42.328125 56 49.015625 48.375 
Q 55.71875 40.765625 55.71875 27.296875 
Q 55.71875 13.875 49.015625 6.21875 
Q 42.328125 -1.421875 30.609375 -1.421875 
Q 18.84375 -1.421875 12.171875 6.21875 
Q 5.515625 13.875 5.515625 27.296875 
Q 5.515625 40.765625 12.171875 48.375 
Q 18.84375 56 30.609375 56 
z
" id="DejaVuSans-111"/>
      <path d="M 8.5 21.578125 
L 8.5 54.6875 
L 17.484375 54.6875 
L 17.484375 21.921875 
Q 17.484375 14.15625 20.5 10.265625 
Q 23.53125 6.390625 29.59375 6.390625 
Q 36.859375 6.390625 41.078125 11.03125 
Q 45.3125 15.671875 45.3125 23.6875 
L 45.3125 54.6875 
L 54.296875 54.6875 
L 54.296875 0 
L 45.3125 0 
L 45.3125 8.40625 
Q 42.046875 3.421875 37.71875 1 
Q 33.40625 -1.421875 27.6875 -1.421875 
Q 18.265625 -1.421875 13.375 4.4375 
Q 8.5 10.296875 8.5 21.578125 
z
M 31.109375 56 
z
" id="DejaVuSans-117"/>
      <path d="M 54.890625 33.015625 
L 54.890625 0 
L 45.90625 0 
L 45.90625 32.71875 
Q 45.90625 40.484375 42.875 44.328125 
Q 39.84375 48.1875 33.796875 48.1875 
Q 26.515625 48.1875 22.3125 43.546875 
Q 18.109375 38.921875 18.109375 30.90625 
L 18.109375 0 
L 9.078125 0 
L 9.078125 54.6875 
L 18.109375 54.6875 
L 18.109375 46.1875 
Q 21.34375 51.125 25.703125 53.5625 
Q 30.078125 56 35.796875 56 
Q 45.21875 56 50.046875 50.171875 
Q 54.890625 44.34375 54.890625 33.015625 
z
" id="DejaVuSans-110"/>
      <path d="M 18.3125 70.21875 
L 18.3125 54.6875 
L 36.8125 54.6875 
L 36.8125 47.703125 
L 18.3125 47.703125 
L 18.3125 18.015625 
Q 18.3125 11.328125 20.140625 9.421875 
Q 21.96875 7.515625 27.59375 7.515625 
L 36.8125 7.515625 
L 36.8125 0 
L 27.59375 0 
Q 17.1875 0 13.234375 3.875 
Q 9.28125 7.765625 9.28125 18.015625 
L 9.28125 47.703125 
L 2.6875 47.703125 
L 2.6875 54.6875 
L 9.28125 54.6875 
L 9.28125 70.21875 
z
" id="DejaVuSans-116"/>
     </defs>
     <g transform="translate(75.832812 182.062614)rotate(-90)scale(0.1 -0.1)">
      <use xlink:href="#DejaVuSans-99"/>
      <use x="54.980469" xlink:href="#DejaVuSans-111"/>
      <use x="116.162109" xlink:href="#DejaVuSans-117"/>
      <use x="179.541016" xlink:href="#DejaVuSans-110"/>
      <use x="242.919922" xlink:href="#DejaVuSans-116"/>
     </g>
    </g>
   </g>
   <g id="patch_13">
    <path d="M 108 266.792727 
L 108 69.12 
" style="fill:none;stroke:#000000;stroke-linecap:square;stroke-linejoin:miter;stroke-width:0.8;"/>
   </g>
   <g id="patch_14">
    <path d="M 253.565217 266.792727 
L 253.565217 69.12 
" style="fill:none;stroke:#000000;stroke-linecap:square;stroke-linejoin:miter;stroke-width:0.8;"/>
   </g>
   <g id="patch_15">
    <path d="M 108 266.792727 
L 253.565217 266.792727 
" style="fill:none;stroke:#000000;stroke-linecap:square;stroke-linejoin:miter;stroke-width:0.8;"/>
   </g>
   <g id="patch_16">
    <path d="M 108 69.12 
L 253.565217 69.12 
" style="fill:none;stroke:#000000;stroke-linecap:square;stroke-linejoin:miter;stroke-width:0.8;"/>
   </g>
   <g id="legend_1">
    <g id="patch_17">
     <path d="M 208.202717 121.154375 
L 246.565217 121.154375 
Q 248.565217 121.154375 248.565217 119.154375 
L 248.565217 76.12 
Q 248.565217 74.12 246.565217 74.12 
L 208.202717 74.12 
Q 206.202717 74.12 206.202717 76.12 
L 206.202717 119.154375 
Q 206.202717 121.154375 208.202717 121.154375 
z
" style="fill:#ffffff;opacity:0.8;stroke:#cccccc;stroke-linejoin:miter;"/>
    </g>
    <g id="text_16">
     <!-- group -->
     <defs>
      <path d="M 41.109375 46.296875 
Q 39.59375 47.171875 37.8125 47.578125 
Q 36.03125 48 33.890625 48 
Q 26.265625 48 22.1875 43.046875 
Q 18.109375 38.09375 18.109375 28.8125 
L 18.109375 0 
L 9.078125 0 
L 9.078125 54.6875 
L 18.109375 54.6875 
L 18.109375 46.1875 
Q 20.953125 51.171875 25.484375 53.578125 
Q 30.03125 56 36.53125 56 
Q 37.453125 56 38.578125 55.875 
Q 39.703125 55.765625 41.0625 55.515625 
z
" id="DejaVuSans-114"/>
      <path d="M 18.109375 8.203125 
L 18.109375 -20.796875 
L 9.078125 -20.796875 
L 9.078125 54.6875 
L 18.109375 54.6875 
L 18.109375 46.390625 
Q 20.953125 51.265625 25.265625 53.625 
Q 29.59375 56 35.59375 56 
Q 45.5625 56 51.78125 48.09375 
Q 58.015625 40.1875 58.015625 27.296875 
Q 58.015625 14.40625 51.78125 6.484375 
Q 45.5625 -1.421875 35.59375 -1.421875 
Q 29.59375 -1.421875 25.265625 0.953125 
Q 20.953125 3.328125 18.109375 8.203125 
z
M 48.6875 27.296875 
Q 48.6875 37.203125 44.609375 42.84375 
Q 40.53125 48.484375 33.40625 48.484375 
Q 26.265625 48.484375 22.1875 42.84375 
Q 18.109375 37.203125 18.109375 27.296875 
Q 18.109375 17.390625 22.1875 11.75 
Q 26.265625 6.109375 33.40625 6.109375 
Q 40.53125 6.109375 44.609375 11.75 
Q 48.6875 17.390625 48.6875 27.296875 
z
" id="DejaVuSans-112"/>
     </defs>
     <g transform="translate(212.753499 85.718437)scale(0.1 -0.1)">
      <use xlink:href="#DejaVuSans-103"/>
      <use x="63.476562" xlink:href="#DejaVuSans-114"/>
      <use x="104.558594" xlink:href="#DejaVuSans-111"/>
      <use x="165.740234" xlink:href="#DejaVuSans-117"/>
      <use x="229.119141" xlink:href="#DejaVuSans-112"/>
     </g>
    </g>
    <g id="patch_18">
     <path d="M 210.202717 100.396563 
L 230.202717 100.396563 
L 230.202717 93.396563 
L 210.202717 93.396563 
z
" style="fill:#3274a1;"/>
    </g>
    <g id="text_17">
     <!-- 0 -->
     <g transform="translate(238.202717 100.396563)scale(0.1 -0.1)">
      <use xlink:href="#DejaVuSans-48"/>
     </g>
    </g>
    <g id="patch_19">
     <path d="M 210.202717 115.074688 
L 230.202717 115.074688 
L 230.202717 108.074688 
L 210.202717 108.074688 
z
" style="fill:#e1812c;"/>
    </g>
    <g id="text_18">
     <!-- 1 -->
     <g transform="translate(238.202717 115.074688)scale(0.1 -0.1)">
      <use xlink:href="#DejaVuSans-49"/>
     </g>
    </g>
   </g>
  </g>
  <g id="axes_2">
   <g id="patch_20">
    <path d="M 282.678261 266.792727 
L 428.243478 266.792727 
L 428.243478 69.12 
L 282.678261 69.12 
z
" style="fill:#ffffff;"/>
   </g>
   <g id="patch_21">
    <path clip-path="url(#p6c636e6129)" d="M 289.956522 266.792727 
L 319.069565 266.792727 
L 319.069565 147.056647 
L 289.956522 147.056647 
z
" style="fill:#3274a1;"/>
   </g>
   <g id="patch_22">
    <path clip-path="url(#p6c636e6129)" d="M 362.73913 266.792727 
L 391.852174 266.792727 
L 391.852174 78.532987 
L 362.73913 78.532987 
z
" style="fill:#3274a1;"/>
   </g>
   <g id="patch_23">
    <path clip-path="url(#p6c636e6129)" d="M 319.069565 266.792727 
L 348.182609 266.792727 
L 348.182609 233.61285 
L 319.069565 233.61285 
z
" style="fill:#e1812c;"/>
   </g>
   <g id="patch_24">
    <path clip-path="url(#p6c636e6129)" d="M 391.852174 266.792727 
L 420.965217 266.792727 
L 420.965217 184.564335 
L 391.852174 184.564335 
z
" style="fill:#e1812c;"/>
   </g>
   <g id="matplotlib.axis_3">
    <g id="xtick_6">
     <g id="line2d_14">
      <g>
       <use style="stroke:#000000;stroke-width:0.8;" x="319.069565" xlink:href="#m8f53496a68" y="266.792727"/>
      </g>
     </g>
     <g id="text_19">
      <!-- 0 -->
      <g transform="translate(315.888315 281.391165)scale(0.1 -0.1)">
       <use xlink:href="#DejaVuSans-48"/>
      </g>
     </g>
    </g>
    <g id="xtick_7">
     <g id="line2d_15">
      <g>
       <use style="stroke:#000000;stroke-width:0.8;" x="391.852174" xlink:href="#m8f53496a68" y="266.792727"/>
      </g>
     </g>
     <g id="text_20">
      <!-- 1 -->
      <g transform="translate(388.670924 281.391165)scale(0.1 -0.1)">
       <use xlink:href="#DejaVuSans-49"/>
      </g>
     </g>
    </g>
    <g id="text_21">
     <!-- sex -->
     <defs>
      <path d="M 44.28125 53.078125 
L 44.28125 44.578125 
Q 40.484375 46.53125 36.375 47.5 
Q 32.28125 48.484375 27.875 48.484375 
Q 21.1875 48.484375 17.84375 46.4375 
Q 14.5 44.390625 14.5 40.28125 
Q 14.5 37.15625 16.890625 35.375 
Q 19.28125 33.59375 26.515625 31.984375 
L 29.59375 31.296875 
Q 39.15625 29.25 43.1875 25.515625 
Q 47.21875 21.78125 47.21875 15.09375 
Q 47.21875 7.46875 41.1875 3.015625 
Q 35.15625 -1.421875 24.609375 -1.421875 
Q 20.21875 -1.421875 15.453125 -0.5625 
Q 10.6875 0.296875 5.421875 2 
L 5.421875 11.28125 
Q 10.40625 8.6875 15.234375 7.390625 
Q 20.0625 6.109375 24.8125 6.109375 
Q 31.15625 6.109375 34.5625 8.28125 
Q 37.984375 10.453125 37.984375 14.40625 
Q 37.984375 18.0625 35.515625 20.015625 
Q 33.0625 21.96875 24.703125 23.78125 
L 21.578125 24.515625 
Q 13.234375 26.265625 9.515625 29.90625 
Q 5.8125 33.546875 5.8125 39.890625 
Q 5.8125 47.609375 11.28125 51.796875 
Q 16.75 56 26.8125 56 
Q 31.78125 56 36.171875 55.265625 
Q 40.578125 54.546875 44.28125 53.078125 
z
" id="DejaVuSans-115"/>
      <path d="M 54.890625 54.6875 
L 35.109375 28.078125 
L 55.90625 0 
L 45.3125 0 
L 29.390625 21.484375 
L 13.484375 0 
L 2.875 0 
L 24.125 28.609375 
L 4.6875 54.6875 
L 15.28125 54.6875 
L 29.78125 35.203125 
L 44.28125 54.6875 
z
" id="DejaVuSans-120"/>
     </defs>
     <g transform="translate(346.821026 295.06929)scale(0.1 -0.1)">
      <use xlink:href="#DejaVuSans-115"/>
      <use x="52.099609" xlink:href="#DejaVuSans-101"/>
      <use x="113.607422" xlink:href="#DejaVuSans-120"/>
     </g>
    </g>
   </g>
   <g id="matplotlib.axis_4">
    <g id="ytick_9">
     <g id="line2d_16">
      <g>
       <use style="stroke:#000000;stroke-width:0.8;" x="282.678261" xlink:href="#mb02ba61362" y="266.792727"/>
      </g>
     </g>
     <g id="text_22">
      <!-- 0 -->
      <g transform="translate(269.315761 270.591946)scale(0.1 -0.1)">
       <use xlink:href="#DejaVuSans-48"/>
      </g>
     </g>
    </g>
    <g id="ytick_10">
     <g id="line2d_17">
      <g>
       <use style="stroke:#000000;stroke-width:0.8;" x="282.678261" xlink:href="#mb02ba61362" y="230.727643"/>
      </g>
     </g>
     <g id="text_23">
      <!-- 50 -->
      <g transform="translate(262.953261 234.526862)scale(0.1 -0.1)">
       <use xlink:href="#DejaVuSans-53"/>
       <use x="63.623047" xlink:href="#DejaVuSans-48"/>
      </g>
     </g>
    </g>
    <g id="ytick_11">
     <g id="line2d_18">
      <g>
       <use style="stroke:#000000;stroke-width:0.8;" x="282.678261" xlink:href="#mb02ba61362" y="194.662559"/>
      </g>
     </g>
     <g id="text_24">
      <!-- 100 -->
      <g transform="translate(256.590761 198.461777)scale(0.1 -0.1)">
       <use xlink:href="#DejaVuSans-49"/>
       <use x="63.623047" xlink:href="#DejaVuSans-48"/>
       <use x="127.246094" xlink:href="#DejaVuSans-48"/>
      </g>
     </g>
    </g>
    <g id="ytick_12">
     <g id="line2d_19">
      <g>
       <use style="stroke:#000000;stroke-width:0.8;" x="282.678261" xlink:href="#mb02ba61362" y="158.597474"/>
      </g>
     </g>
     <g id="text_25">
      <!-- 150 -->
      <g transform="translate(256.590761 162.396693)scale(0.1 -0.1)">
       <use xlink:href="#DejaVuSans-49"/>
       <use x="63.623047" xlink:href="#DejaVuSans-53"/>
       <use x="127.246094" xlink:href="#DejaVuSans-48"/>
      </g>
     </g>
    </g>
    <g id="ytick_13">
     <g id="line2d_20">
      <g>
       <use style="stroke:#000000;stroke-width:0.8;" x="282.678261" xlink:href="#mb02ba61362" y="122.53239"/>
      </g>
     </g>
     <g id="text_26">
      <!-- 200 -->
      <g transform="translate(256.590761 126.331609)scale(0.1 -0.1)">
       <use xlink:href="#DejaVuSans-50"/>
       <use x="63.623047" xlink:href="#DejaVuSans-48"/>
       <use x="127.246094" xlink:href="#DejaVuSans-48"/>
      </g>
     </g>
    </g>
    <g id="ytick_14">
     <g id="line2d_21">
      <g>
       <use style="stroke:#000000;stroke-width:0.8;" x="282.678261" xlink:href="#mb02ba61362" y="86.467306"/>
      </g>
     </g>
     <g id="text_27">
      <!-- 250 -->
      <g transform="translate(256.590761 90.266524)scale(0.1 -0.1)">
       <use xlink:href="#DejaVuSans-50"/>
       <use x="63.623047" xlink:href="#DejaVuSans-53"/>
       <use x="127.246094" xlink:href="#DejaVuSans-48"/>
      </g>
     </g>
    </g>
    <g id="text_28">
     <!-- count -->
     <g transform="translate(250.511073 182.062614)rotate(-90)scale(0.1 -0.1)">
      <use xlink:href="#DejaVuSans-99"/>
      <use x="54.980469" xlink:href="#DejaVuSans-111"/>
      <use x="116.162109" xlink:href="#DejaVuSans-117"/>
      <use x="179.541016" xlink:href="#DejaVuSans-110"/>
      <use x="242.919922" xlink:href="#DejaVuSans-116"/>
     </g>
    </g>
   </g>
   <g id="patch_25">
    <path d="M 282.678261 266.792727 
L 282.678261 69.12 
" style="fill:none;stroke:#000000;stroke-linecap:square;stroke-linejoin:miter;stroke-width:0.8;"/>
   </g>
   <g id="patch_26">
    <path d="M 428.243478 266.792727 
L 428.243478 69.12 
" style="fill:none;stroke:#000000;stroke-linecap:square;stroke-linejoin:miter;stroke-width:0.8;"/>
   </g>
   <g id="patch_27">
    <path d="M 282.678261 266.792727 
L 428.243478 266.792727 
" style="fill:none;stroke:#000000;stroke-linecap:square;stroke-linejoin:miter;stroke-width:0.8;"/>
   </g>
   <g id="patch_28">
    <path d="M 282.678261 69.12 
L 428.243478 69.12 
" style="fill:none;stroke:#000000;stroke-linecap:square;stroke-linejoin:miter;stroke-width:0.8;"/>
   </g>
   <g id="legend_2">
    <g id="patch_29">
     <path d="M 289.678261 121.154375 
L 328.040761 121.154375 
Q 330.040761 121.154375 330.040761 119.154375 
L 330.040761 76.12 
Q 330.040761 74.12 328.040761 74.12 
L 289.678261 74.12 
Q 287.678261 74.12 287.678261 76.12 
L 287.678261 119.154375 
Q 287.678261 121.154375 289.678261 121.154375 
z
" style="fill:#ffffff;opacity:0.8;stroke:#cccccc;stroke-linejoin:miter;"/>
    </g>
    <g id="text_29">
     <!-- group -->
     <g transform="translate(294.229042 85.718437)scale(0.1 -0.1)">
      <use xlink:href="#DejaVuSans-103"/>
      <use x="63.476562" xlink:href="#DejaVuSans-114"/>
      <use x="104.558594" xlink:href="#DejaVuSans-111"/>
      <use x="165.740234" xlink:href="#DejaVuSans-117"/>
      <use x="229.119141" xlink:href="#DejaVuSans-112"/>
     </g>
    </g>
    <g id="patch_30">
     <path d="M 291.678261 100.396563 
L 311.678261 100.396563 
L 311.678261 93.396563 
L 291.678261 93.396563 
z
" style="fill:#3274a1;"/>
    </g>
    <g id="text_30">
     <!-- 0 -->
     <g transform="translate(319.678261 100.396563)scale(0.1 -0.1)">
      <use xlink:href="#DejaVuSans-48"/>
     </g>
    </g>
    <g id="patch_31">
     <path d="M 291.678261 115.074688 
L 311.678261 115.074688 
L 311.678261 108.074688 
L 291.678261 108.074688 
z
" style="fill:#e1812c;"/>
    </g>
    <g id="text_31">
     <!-- 1 -->
     <g transform="translate(319.678261 115.074688)scale(0.1 -0.1)">
      <use xlink:href="#DejaVuSans-49"/>
     </g>
    </g>
   </g>
  </g>
  <g id="axes_3">
   <g id="patch_32">
    <path d="M 457.356522 266.792727 
L 602.921739 266.792727 
L 602.921739 69.12 
L 457.356522 69.12 
z
" style="fill:#ffffff;"/>
   </g>
   <g id="patch_33">
    <path clip-path="url(#pbb703a473b)" d="M 460.267826 266.792727 
L 471.913043 266.792727 
L 471.913043 78.532987 
L 460.267826 78.532987 
z
" style="fill:#3274a1;"/>
   </g>
   <g id="patch_34">
    <path clip-path="url(#pbb703a473b)" d="M 489.38087 266.792727 
L 501.026087 266.792727 
L 501.026087 190.618266 
L 489.38087 190.618266 
z
" style="fill:#3274a1;"/>
   </g>
   <g id="patch_35">
    <path clip-path="url(#pbb703a473b)" d="M 518.493913 266.792727 
L 530.13913 266.792727 
L 530.13913 213.470604 
L 518.493913 213.470604 
z
" style="fill:#3274a1;"/>
   </g>
   <g id="patch_36">
    <path clip-path="url(#pbb703a473b)" d="M 547.606957 266.792727 
L 559.252174 266.792727 
L 559.252174 231.970116 
L 547.606957 231.970116 
z
" style="fill:#3274a1;"/>
   </g>
   <g id="patch_37">
    <path clip-path="url(#pbb703a473b)" d="M 576.72 266.792727 
L 588.365217 266.792727 
L 588.365217 154.707448 
L 576.72 154.707448 
z
" style="fill:#3274a1;"/>
   </g>
   <g id="patch_38">
    <path clip-path="url(#pbb703a473b)" d="M 471.913043 266.792727 
L 483.558261 266.792727 
L 483.558261 227.61729 
L 471.913043 227.61729 
z
" style="fill:#e1812c;"/>
   </g>
   <g id="patch_39">
    <path clip-path="url(#pbb703a473b)" d="M 501.026087 266.792727 
L 512.671304 266.792727 
L 512.671304 236.322943 
L 501.026087 236.322943 
z
" style="fill:#e1812c;"/>
   </g>
   <g id="patch_40">
    <path clip-path="url(#pbb703a473b)" d="M 530.13913 266.792727 
L 541.784348 266.792727 
L 541.784348 248.293215 
L 530.13913 248.293215 
z
" style="fill:#e1812c;"/>
   </g>
   <g id="patch_41">
    <path clip-path="url(#pbb703a473b)" d="M 559.252174 266.792727 
L 570.897391 266.792727 
L 570.897391 240.675769 
L 559.252174 240.675769 
z
" style="fill:#e1812c;"/>
   </g>
   <g id="patch_42">
    <path clip-path="url(#pbb703a473b)" d="M 588.365217 266.792727 
L 600.010435 266.792727 
L 600.010435 206.941365 
L 588.365217 206.941365 
z
" style="fill:#e1812c;"/>
   </g>
   <g id="matplotlib.axis_5">
    <g id="xtick_8">
     <g id="line2d_22">
      <g>
       <use style="stroke:#000000;stroke-width:0.8;" x="471.913043" xlink:href="#m8f53496a68" y="266.792727"/>
      </g>
     </g>
     <g id="text_32">
      <!-- 1 -->
      <g transform="translate(468.731793 281.391165)scale(0.1 -0.1)">
       <use xlink:href="#DejaVuSans-49"/>
      </g>
     </g>
    </g>
    <g id="xtick_9">
     <g id="line2d_23">
      <g>
       <use style="stroke:#000000;stroke-width:0.8;" x="501.026087" xlink:href="#m8f53496a68" y="266.792727"/>
      </g>
     </g>
     <g id="text_33">
      <!-- 2 -->
      <g transform="translate(497.844837 281.391165)scale(0.1 -0.1)">
       <use xlink:href="#DejaVuSans-50"/>
      </g>
     </g>
    </g>
    <g id="xtick_10">
     <g id="line2d_24">
      <g>
       <use style="stroke:#000000;stroke-width:0.8;" x="530.13913" xlink:href="#m8f53496a68" y="266.792727"/>
      </g>
     </g>
     <g id="text_34">
      <!-- 3 -->
      <g transform="translate(526.95788 281.391165)scale(0.1 -0.1)">
       <use xlink:href="#DejaVuSans-51"/>
      </g>
     </g>
    </g>
    <g id="xtick_11">
     <g id="line2d_25">
      <g>
       <use style="stroke:#000000;stroke-width:0.8;" x="559.252174" xlink:href="#m8f53496a68" y="266.792727"/>
      </g>
     </g>
     <g id="text_35">
      <!-- 4 -->
      <g transform="translate(556.070924 281.391165)scale(0.1 -0.1)">
       <use xlink:href="#DejaVuSans-52"/>
      </g>
     </g>
    </g>
    <g id="xtick_12">
     <g id="line2d_26">
      <g>
       <use style="stroke:#000000;stroke-width:0.8;" x="588.365217" xlink:href="#m8f53496a68" y="266.792727"/>
      </g>
     </g>
     <g id="text_36">
      <!-- 5 -->
      <g transform="translate(585.183967 281.391165)scale(0.1 -0.1)">
       <use xlink:href="#DejaVuSans-53"/>
      </g>
     </g>
    </g>
    <g id="text_37">
     <!-- education -->
     <defs>
      <path d="M 45.40625 46.390625 
L 45.40625 75.984375 
L 54.390625 75.984375 
L 54.390625 0 
L 45.40625 0 
L 45.40625 8.203125 
Q 42.578125 3.328125 38.25 0.953125 
Q 33.9375 -1.421875 27.875 -1.421875 
Q 17.96875 -1.421875 11.734375 6.484375 
Q 5.515625 14.40625 5.515625 27.296875 
Q 5.515625 40.1875 11.734375 48.09375 
Q 17.96875 56 27.875 56 
Q 33.9375 56 38.25 53.625 
Q 42.578125 51.265625 45.40625 46.390625 
z
M 14.796875 27.296875 
Q 14.796875 17.390625 18.875 11.75 
Q 22.953125 6.109375 30.078125 6.109375 
Q 37.203125 6.109375 41.296875 11.75 
Q 45.40625 17.390625 45.40625 27.296875 
Q 45.40625 37.203125 41.296875 42.84375 
Q 37.203125 48.484375 30.078125 48.484375 
Q 22.953125 48.484375 18.875 42.84375 
Q 14.796875 37.203125 14.796875 27.296875 
z
" id="DejaVuSans-100"/>
      <path d="M 9.421875 54.6875 
L 18.40625 54.6875 
L 18.40625 0 
L 9.421875 0 
z
M 9.421875 75.984375 
L 18.40625 75.984375 
L 18.40625 64.59375 
L 9.421875 64.59375 
z
" id="DejaVuSans-105"/>
     </defs>
     <g transform="translate(505.328974 295.06929)scale(0.1 -0.1)">
      <use xlink:href="#DejaVuSans-101"/>
      <use x="61.523438" xlink:href="#DejaVuSans-100"/>
      <use x="125" xlink:href="#DejaVuSans-117"/>
      <use x="188.378906" xlink:href="#DejaVuSans-99"/>
      <use x="243.359375" xlink:href="#DejaVuSans-97"/>
      <use x="304.638672" xlink:href="#DejaVuSans-116"/>
      <use x="343.847656" xlink:href="#DejaVuSans-105"/>
      <use x="371.630859" xlink:href="#DejaVuSans-111"/>
      <use x="432.8125" xlink:href="#DejaVuSans-110"/>
     </g>
    </g>
   </g>
   <g id="matplotlib.axis_6">
    <g id="ytick_15">
     <g id="line2d_27">
      <g>
       <use style="stroke:#000000;stroke-width:0.8;" x="457.356522" xlink:href="#mb02ba61362" y="266.792727"/>
      </g>
     </g>
     <g id="text_38">
      <!-- 0 -->
      <g transform="translate(443.994022 270.591946)scale(0.1 -0.1)">
       <use xlink:href="#DejaVuSans-48"/>
      </g>
     </g>
    </g>
    <g id="ytick_16">
     <g id="line2d_28">
      <g>
       <use style="stroke:#000000;stroke-width:0.8;" x="457.356522" xlink:href="#mb02ba61362" y="239.587562"/>
      </g>
     </g>
     <g id="text_39">
      <!-- 25 -->
      <g transform="translate(437.631522 243.386781)scale(0.1 -0.1)">
       <use xlink:href="#DejaVuSans-50"/>
       <use x="63.623047" xlink:href="#DejaVuSans-53"/>
      </g>
     </g>
    </g>
    <g id="ytick_17">
     <g id="line2d_29">
      <g>
       <use style="stroke:#000000;stroke-width:0.8;" x="457.356522" xlink:href="#mb02ba61362" y="212.382398"/>
      </g>
     </g>
     <g id="text_40">
      <!-- 50 -->
      <g transform="translate(437.631522 216.181616)scale(0.1 -0.1)">
       <use xlink:href="#DejaVuSans-53"/>
       <use x="63.623047" xlink:href="#DejaVuSans-48"/>
      </g>
     </g>
    </g>
    <g id="ytick_18">
     <g id="line2d_30">
      <g>
       <use style="stroke:#000000;stroke-width:0.8;" x="457.356522" xlink:href="#mb02ba61362" y="185.177233"/>
      </g>
     </g>
     <g id="text_41">
      <!-- 75 -->
      <g transform="translate(437.631522 188.976452)scale(0.1 -0.1)">
       <use xlink:href="#DejaVuSans-55"/>
       <use x="63.623047" xlink:href="#DejaVuSans-53"/>
      </g>
     </g>
    </g>
    <g id="ytick_19">
     <g id="line2d_31">
      <g>
       <use style="stroke:#000000;stroke-width:0.8;" x="457.356522" xlink:href="#mb02ba61362" y="157.972068"/>
      </g>
     </g>
     <g id="text_42">
      <!-- 100 -->
      <g transform="translate(431.269022 161.771287)scale(0.1 -0.1)">
       <use xlink:href="#DejaVuSans-49"/>
       <use x="63.623047" xlink:href="#DejaVuSans-48"/>
       <use x="127.246094" xlink:href="#DejaVuSans-48"/>
      </g>
     </g>
    </g>
    <g id="ytick_20">
     <g id="line2d_32">
      <g>
       <use style="stroke:#000000;stroke-width:0.8;" x="457.356522" xlink:href="#mb02ba61362" y="130.766903"/>
      </g>
     </g>
     <g id="text_43">
      <!-- 125 -->
      <g transform="translate(431.269022 134.566122)scale(0.1 -0.1)">
       <use xlink:href="#DejaVuSans-49"/>
       <use x="63.623047" xlink:href="#DejaVuSans-50"/>
       <use x="127.246094" xlink:href="#DejaVuSans-53"/>
      </g>
     </g>
    </g>
    <g id="ytick_21">
     <g id="line2d_33">
      <g>
       <use style="stroke:#000000;stroke-width:0.8;" x="457.356522" xlink:href="#mb02ba61362" y="103.561739"/>
      </g>
     </g>
     <g id="text_44">
      <!-- 150 -->
      <g transform="translate(431.269022 107.360957)scale(0.1 -0.1)">
       <use xlink:href="#DejaVuSans-49"/>
       <use x="63.623047" xlink:href="#DejaVuSans-53"/>
       <use x="127.246094" xlink:href="#DejaVuSans-48"/>
      </g>
     </g>
    </g>
    <g id="ytick_22">
     <g id="line2d_34">
      <g>
       <use style="stroke:#000000;stroke-width:0.8;" x="457.356522" xlink:href="#mb02ba61362" y="76.356574"/>
      </g>
     </g>
     <g id="text_45">
      <!-- 175 -->
      <g transform="translate(431.269022 80.155793)scale(0.1 -0.1)">
       <use xlink:href="#DejaVuSans-49"/>
       <use x="63.623047" xlink:href="#DejaVuSans-55"/>
       <use x="127.246094" xlink:href="#DejaVuSans-53"/>
      </g>
     </g>
    </g>
    <g id="text_46">
     <!-- count -->
     <g transform="translate(425.189334 182.062614)rotate(-90)scale(0.1 -0.1)">
      <use xlink:href="#DejaVuSans-99"/>
      <use x="54.980469" xlink:href="#DejaVuSans-111"/>
      <use x="116.162109" xlink:href="#DejaVuSans-117"/>
      <use x="179.541016" xlink:href="#DejaVuSans-110"/>
      <use x="242.919922" xlink:href="#DejaVuSans-116"/>
     </g>
    </g>
   </g>
   <g id="patch_43">
    <path d="M 457.356522 266.792727 
L 457.356522 69.12 
" style="fill:none;stroke:#000000;stroke-linecap:square;stroke-linejoin:miter;stroke-width:0.8;"/>
   </g>
   <g id="patch_44">
    <path d="M 602.921739 266.792727 
L 602.921739 69.12 
" style="fill:none;stroke:#000000;stroke-linecap:square;stroke-linejoin:miter;stroke-width:0.8;"/>
   </g>
   <g id="patch_45">
    <path d="M 457.356522 266.792727 
L 602.921739 266.792727 
" style="fill:none;stroke:#000000;stroke-linecap:square;stroke-linejoin:miter;stroke-width:0.8;"/>
   </g>
   <g id="patch_46">
    <path d="M 457.356522 69.12 
L 602.921739 69.12 
" style="fill:none;stroke:#000000;stroke-linecap:square;stroke-linejoin:miter;stroke-width:0.8;"/>
   </g>
   <g id="legend_3">
    <g id="patch_47">
     <path d="M 557.559239 121.154375 
L 595.921739 121.154375 
Q 597.921739 121.154375 597.921739 119.154375 
L 597.921739 76.12 
Q 597.921739 74.12 595.921739 74.12 
L 557.559239 74.12 
Q 555.559239 74.12 555.559239 76.12 
L 555.559239 119.154375 
Q 555.559239 121.154375 557.559239 121.154375 
z
" style="fill:#ffffff;opacity:0.8;stroke:#cccccc;stroke-linejoin:miter;"/>
    </g>
    <g id="text_47">
     <!-- group -->
     <g transform="translate(562.11002 85.718437)scale(0.1 -0.1)">
      <use xlink:href="#DejaVuSans-103"/>
      <use x="63.476562" xlink:href="#DejaVuSans-114"/>
      <use x="104.558594" xlink:href="#DejaVuSans-111"/>
      <use x="165.740234" xlink:href="#DejaVuSans-117"/>
      <use x="229.119141" xlink:href="#DejaVuSans-112"/>
     </g>
    </g>
    <g id="patch_48">
     <path d="M 559.559239 100.396563 
L 579.559239 100.396563 
L 579.559239 93.396563 
L 559.559239 93.396563 
z
" style="fill:#3274a1;"/>
    </g>
    <g id="text_48">
     <!-- 0 -->
     <g transform="translate(587.559239 100.396563)scale(0.1 -0.1)">
      <use xlink:href="#DejaVuSans-48"/>
     </g>
    </g>
    <g id="patch_49">
     <path d="M 559.559239 115.074688 
L 579.559239 115.074688 
L 579.559239 108.074688 
L 559.559239 108.074688 
z
" style="fill:#e1812c;"/>
    </g>
    <g id="text_49">
     <!-- 1 -->
     <g transform="translate(587.559239 115.074688)scale(0.1 -0.1)">
      <use xlink:href="#DejaVuSans-49"/>
     </g>
    </g>
   </g>
  </g>
  <g id="axes_4">
   <g id="patch_50">
    <path d="M 632.034783 266.792727 
L 777.6 266.792727 
L 777.6 69.12 
L 632.034783 69.12 
z
" style="fill:#ffffff;"/>
   </g>
   <g id="patch_51">
    <path clip-path="url(#pe4ab7c4c17)" d="M 634.946087 266.792727 
L 646.591304 266.792727 
L 646.591304 78.532987 
L 634.946087 78.532987 
z
" style="fill:#3274a1;"/>
   </g>
   <g id="patch_52">
    <path clip-path="url(#pe4ab7c4c17)" d="M 664.05913 266.792727 
L 675.704348 266.792727 
L 675.704348 128.173615 
L 664.05913 128.173615 
z
" style="fill:#3274a1;"/>
   </g>
   <g id="patch_53">
    <path clip-path="url(#pe4ab7c4c17)" d="M 693.172174 266.792727 
L 704.817391 266.792727 
L 704.817391 231.201334 
L 693.172174 231.201334 
z
" style="fill:#3274a1;"/>
   </g>
   <g id="patch_54">
    <path clip-path="url(#pe4ab7c4c17)" d="M 722.285217 266.792727 
L 733.930435 266.792727 
L 733.930435 244.313952 
L 722.285217 244.313952 
z
" style="fill:#3274a1;"/>
   </g>
   <g id="patch_55">
    <path clip-path="url(#pe4ab7c4c17)" d="M 751.398261 266.792727 
L 763.043478 266.792727 
L 763.043478 251.806877 
L 751.398261 251.806877 
z
" style="fill:#3274a1;"/>
   </g>
   <g id="patch_56">
    <path clip-path="url(#pe4ab7c4c17)" d="M 646.591304 266.792727 
L 658.236522 266.792727 
L 658.236522 216.215484 
L 646.591304 216.215484 
z
" style="fill:#e1812c;"/>
   </g>
   <g id="patch_57">
    <path clip-path="url(#pe4ab7c4c17)" d="M 675.704348 266.792727 
L 687.349565 266.792727 
L 687.349565 206.849327 
L 675.704348 206.849327 
z
" style="fill:#e1812c;"/>
   </g>
   <g id="patch_58">
    <path clip-path="url(#pe4ab7c4c17)" d="M 704.817391 266.792727 
L 716.462609 266.792727 
L 716.462609 263.046265 
L 704.817391 263.046265 
z
" style="fill:#e1812c;"/>
   </g>
   <g id="patch_59">
    <path clip-path="url(#pe4ab7c4c17)" d="M 733.930435 266.792727 
L 745.575652 266.792727 
L 745.575652 251.806877 
L 733.930435 251.806877 
z
" style="fill:#e1812c;"/>
   </g>
   <g id="patch_60">
    <path clip-path="url(#pe4ab7c4c17)" d="M 763.043478 266.792727 
L 774.688696 266.792727 
L 774.688696 246.187184 
L 763.043478 246.187184 
z
" style="fill:#e1812c;"/>
   </g>
   <g id="matplotlib.axis_7">
    <g id="xtick_13">
     <g id="line2d_35">
      <g>
       <use style="stroke:#000000;stroke-width:0.8;" x="646.591304" xlink:href="#m8f53496a68" y="266.792727"/>
      </g>
     </g>
     <g id="text_50">
      <!-- 1 -->
      <g transform="translate(643.410054 281.391165)scale(0.1 -0.1)">
       <use xlink:href="#DejaVuSans-49"/>
      </g>
     </g>
    </g>
    <g id="xtick_14">
     <g id="line2d_36">
      <g>
       <use style="stroke:#000000;stroke-width:0.8;" x="675.704348" xlink:href="#m8f53496a68" y="266.792727"/>
      </g>
     </g>
     <g id="text_51">
      <!-- 2 -->
      <g transform="translate(672.523098 281.391165)scale(0.1 -0.1)">
       <use xlink:href="#DejaVuSans-50"/>
      </g>
     </g>
    </g>
    <g id="xtick_15">
     <g id="line2d_37">
      <g>
       <use style="stroke:#000000;stroke-width:0.8;" x="704.817391" xlink:href="#m8f53496a68" y="266.792727"/>
      </g>
     </g>
     <g id="text_52">
      <!-- 3 -->
      <g transform="translate(701.636141 281.391165)scale(0.1 -0.1)">
       <use xlink:href="#DejaVuSans-51"/>
      </g>
     </g>
    </g>
    <g id="xtick_16">
     <g id="line2d_38">
      <g>
       <use style="stroke:#000000;stroke-width:0.8;" x="733.930435" xlink:href="#m8f53496a68" y="266.792727"/>
      </g>
     </g>
     <g id="text_53">
      <!-- 4 -->
      <g transform="translate(730.749185 281.391165)scale(0.1 -0.1)">
       <use xlink:href="#DejaVuSans-52"/>
      </g>
     </g>
    </g>
    <g id="xtick_17">
     <g id="line2d_39">
      <g>
       <use style="stroke:#000000;stroke-width:0.8;" x="763.043478" xlink:href="#m8f53496a68" y="266.792727"/>
      </g>
     </g>
     <g id="text_54">
      <!-- 5 -->
      <g transform="translate(759.862228 281.391165)scale(0.1 -0.1)">
       <use xlink:href="#DejaVuSans-53"/>
      </g>
     </g>
    </g>
    <g id="text_55">
     <!-- profession -->
     <defs>
      <path d="M 37.109375 75.984375 
L 37.109375 68.5 
L 28.515625 68.5 
Q 23.6875 68.5 21.796875 66.546875 
Q 19.921875 64.59375 19.921875 59.515625 
L 19.921875 54.6875 
L 34.71875 54.6875 
L 34.71875 47.703125 
L 19.921875 47.703125 
L 19.921875 0 
L 10.890625 0 
L 10.890625 47.703125 
L 2.296875 47.703125 
L 2.296875 54.6875 
L 10.890625 54.6875 
L 10.890625 58.5 
Q 10.890625 67.625 15.140625 71.796875 
Q 19.390625 75.984375 28.609375 75.984375 
z
" id="DejaVuSans-102"/>
     </defs>
     <g transform="translate(678.86661 295.06929)scale(0.1 -0.1)">
      <use xlink:href="#DejaVuSans-112"/>
      <use x="63.476562" xlink:href="#DejaVuSans-114"/>
      <use x="104.558594" xlink:href="#DejaVuSans-111"/>
      <use x="165.740234" xlink:href="#DejaVuSans-102"/>
      <use x="200.945312" xlink:href="#DejaVuSans-101"/>
      <use x="262.46875" xlink:href="#DejaVuSans-115"/>
      <use x="314.568359" xlink:href="#DejaVuSans-115"/>
      <use x="366.667969" xlink:href="#DejaVuSans-105"/>
      <use x="394.451172" xlink:href="#DejaVuSans-111"/>
      <use x="455.632812" xlink:href="#DejaVuSans-110"/>
     </g>
    </g>
   </g>
   <g id="matplotlib.axis_8">
    <g id="ytick_23">
     <g id="line2d_40">
      <g>
       <use style="stroke:#000000;stroke-width:0.8;" x="632.034783" xlink:href="#mb02ba61362" y="266.792727"/>
      </g>
     </g>
     <g id="text_56">
      <!-- 0 -->
      <g transform="translate(618.672283 270.591946)scale(0.1 -0.1)">
       <use xlink:href="#DejaVuSans-48"/>
      </g>
     </g>
    </g>
    <g id="ytick_24">
     <g id="line2d_41">
      <g>
       <use style="stroke:#000000;stroke-width:0.8;" x="632.034783" xlink:href="#mb02ba61362" y="243.377337"/>
      </g>
     </g>
     <g id="text_57">
      <!-- 25 -->
      <g transform="translate(612.309783 247.176555)scale(0.1 -0.1)">
       <use xlink:href="#DejaVuSans-50"/>
       <use x="63.623047" xlink:href="#DejaVuSans-53"/>
      </g>
     </g>
    </g>
    <g id="ytick_25">
     <g id="line2d_42">
      <g>
       <use style="stroke:#000000;stroke-width:0.8;" x="632.034783" xlink:href="#mb02ba61362" y="219.961946"/>
      </g>
     </g>
     <g id="text_58">
      <!-- 50 -->
      <g transform="translate(612.309783 223.761165)scale(0.1 -0.1)">
       <use xlink:href="#DejaVuSans-53"/>
       <use x="63.623047" xlink:href="#DejaVuSans-48"/>
      </g>
     </g>
    </g>
    <g id="ytick_26">
     <g id="line2d_43">
      <g>
       <use style="stroke:#000000;stroke-width:0.8;" x="632.034783" xlink:href="#mb02ba61362" y="196.546556"/>
      </g>
     </g>
     <g id="text_59">
      <!-- 75 -->
      <g transform="translate(612.309783 200.345774)scale(0.1 -0.1)">
       <use xlink:href="#DejaVuSans-55"/>
       <use x="63.623047" xlink:href="#DejaVuSans-53"/>
      </g>
     </g>
    </g>
    <g id="ytick_27">
     <g id="line2d_44">
      <g>
       <use style="stroke:#000000;stroke-width:0.8;" x="632.034783" xlink:href="#mb02ba61362" y="173.131165"/>
      </g>
     </g>
     <g id="text_60">
      <!-- 100 -->
      <g transform="translate(605.947283 176.930384)scale(0.1 -0.1)">
       <use xlink:href="#DejaVuSans-49"/>
       <use x="63.623047" xlink:href="#DejaVuSans-48"/>
       <use x="127.246094" xlink:href="#DejaVuSans-48"/>
      </g>
     </g>
    </g>
    <g id="ytick_28">
     <g id="line2d_45">
      <g>
       <use style="stroke:#000000;stroke-width:0.8;" x="632.034783" xlink:href="#mb02ba61362" y="149.715774"/>
      </g>
     </g>
     <g id="text_61">
      <!-- 125 -->
      <g transform="translate(605.947283 153.514993)scale(0.1 -0.1)">
       <use xlink:href="#DejaVuSans-49"/>
       <use x="63.623047" xlink:href="#DejaVuSans-50"/>
       <use x="127.246094" xlink:href="#DejaVuSans-53"/>
      </g>
     </g>
    </g>
    <g id="ytick_29">
     <g id="line2d_46">
      <g>
       <use style="stroke:#000000;stroke-width:0.8;" x="632.034783" xlink:href="#mb02ba61362" y="126.300384"/>
      </g>
     </g>
     <g id="text_62">
      <!-- 150 -->
      <g transform="translate(605.947283 130.099603)scale(0.1 -0.1)">
       <use xlink:href="#DejaVuSans-49"/>
       <use x="63.623047" xlink:href="#DejaVuSans-53"/>
       <use x="127.246094" xlink:href="#DejaVuSans-48"/>
      </g>
     </g>
    </g>
    <g id="ytick_30">
     <g id="line2d_47">
      <g>
       <use style="stroke:#000000;stroke-width:0.8;" x="632.034783" xlink:href="#mb02ba61362" y="102.884993"/>
      </g>
     </g>
     <g id="text_63">
      <!-- 175 -->
      <g transform="translate(605.947283 106.684212)scale(0.1 -0.1)">
       <use xlink:href="#DejaVuSans-49"/>
       <use x="63.623047" xlink:href="#DejaVuSans-55"/>
       <use x="127.246094" xlink:href="#DejaVuSans-53"/>
      </g>
     </g>
    </g>
    <g id="ytick_31">
     <g id="line2d_48">
      <g>
       <use style="stroke:#000000;stroke-width:0.8;" x="632.034783" xlink:href="#mb02ba61362" y="79.469603"/>
      </g>
     </g>
     <g id="text_64">
      <!-- 200 -->
      <g transform="translate(605.947283 83.268821)scale(0.1 -0.1)">
       <use xlink:href="#DejaVuSans-50"/>
       <use x="63.623047" xlink:href="#DejaVuSans-48"/>
       <use x="127.246094" xlink:href="#DejaVuSans-48"/>
      </g>
     </g>
    </g>
    <g id="text_65">
     <!-- count -->
     <g transform="translate(599.867595 182.062614)rotate(-90)scale(0.1 -0.1)">
      <use xlink:href="#DejaVuSans-99"/>
      <use x="54.980469" xlink:href="#DejaVuSans-111"/>
      <use x="116.162109" xlink:href="#DejaVuSans-117"/>
      <use x="179.541016" xlink:href="#DejaVuSans-110"/>
      <use x="242.919922" xlink:href="#DejaVuSans-116"/>
     </g>
    </g>
   </g>
   <g id="patch_61">
    <path d="M 632.034783 266.792727 
L 632.034783 69.12 
" style="fill:none;stroke:#000000;stroke-linecap:square;stroke-linejoin:miter;stroke-width:0.8;"/>
   </g>
   <g id="patch_62">
    <path d="M 777.6 266.792727 
L 777.6 69.12 
" style="fill:none;stroke:#000000;stroke-linecap:square;stroke-linejoin:miter;stroke-width:0.8;"/>
   </g>
   <g id="patch_63">
    <path d="M 632.034783 266.792727 
L 777.6 266.792727 
" style="fill:none;stroke:#000000;stroke-linecap:square;stroke-linejoin:miter;stroke-width:0.8;"/>
   </g>
   <g id="patch_64">
    <path d="M 632.034783 69.12 
L 777.6 69.12 
" style="fill:none;stroke:#000000;stroke-linecap:square;stroke-linejoin:miter;stroke-width:0.8;"/>
   </g>
   <g id="legend_4">
    <g id="patch_65">
     <path d="M 732.2375 121.154375 
L 770.6 121.154375 
Q 772.6 121.154375 772.6 119.154375 
L 772.6 76.12 
Q 772.6 74.12 770.6 74.12 
L 732.2375 74.12 
Q 730.2375 74.12 730.2375 76.12 
L 730.2375 119.154375 
Q 730.2375 121.154375 732.2375 121.154375 
z
" style="fill:#ffffff;opacity:0.8;stroke:#cccccc;stroke-linejoin:miter;"/>
    </g>
    <g id="text_66">
     <!-- group -->
     <g transform="translate(736.788281 85.718437)scale(0.1 -0.1)">
      <use xlink:href="#DejaVuSans-103"/>
      <use x="63.476562" xlink:href="#DejaVuSans-114"/>
      <use x="104.558594" xlink:href="#DejaVuSans-111"/>
      <use x="165.740234" xlink:href="#DejaVuSans-117"/>
      <use x="229.119141" xlink:href="#DejaVuSans-112"/>
     </g>
    </g>
    <g id="patch_66">
     <path d="M 734.2375 100.396563 
L 754.2375 100.396563 
L 754.2375 93.396563 
L 734.2375 93.396563 
z
" style="fill:#3274a1;"/>
    </g>
    <g id="text_67">
     <!-- 0 -->
     <g transform="translate(762.2375 100.396563)scale(0.1 -0.1)">
      <use xlink:href="#DejaVuSans-48"/>
     </g>
    </g>
    <g id="patch_67">
     <path d="M 734.2375 115.074688 
L 754.2375 115.074688 
L 754.2375 108.074688 
L 734.2375 108.074688 
z
" style="fill:#e1812c;"/>
    </g>
    <g id="text_68">
     <!-- 1 -->
     <g transform="translate(762.2375 115.074688)scale(0.1 -0.1)">
      <use xlink:href="#DejaVuSans-49"/>
     </g>
    </g>
   </g>
  </g>
  <g id="axes_5">
   <g id="patch_68">
    <path d="M 108 504 
L 253.565217 504 
L 253.565217 306.327273 
L 108 306.327273 
z
" style="fill:#ffffff;"/>
   </g>
   <g id="patch_69">
    <path clip-path="url(#pe1c266c567)" d="M 110.911304 504 
L 122.556522 504 
L 122.556522 452.117394 
L 110.911304 452.117394 
z
" style="fill:#3274a1;"/>
   </g>
   <g id="patch_70">
    <path clip-path="url(#pe1c266c567)" d="M 140.024348 504 
L 151.669565 504 
L 151.669565 441.740873 
L 140.024348 441.740873 
z
" style="fill:#3274a1;"/>
   </g>
   <g id="patch_71">
    <path clip-path="url(#pe1c266c567)" d="M 169.137391 504 
L 180.782609 504 
L 180.782609 315.74026 
L 169.137391 315.74026 
z
" style="fill:#3274a1;"/>
   </g>
   <g id="patch_72">
    <path clip-path="url(#pe1c266c567)" d="M 198.250435 504 
L 209.895652 504 
L 209.895652 340.940382 
L 198.250435 340.940382 
z
" style="fill:#3274a1;"/>
   </g>
   <g id="patch_73">
    <path clip-path="url(#pe1c266c567)" d="M 227.363478 504 
L 239.008696 504 
L 239.008696 336.493302 
L 227.363478 336.493302 
z
" style="fill:#3274a1;"/>
   </g>
   <g id="patch_74">
    <path clip-path="url(#pe1c266c567)" d="M 122.556522 504 
L 134.201739 504 
L 134.201739 474.352797 
L 122.556522 474.352797 
z
" style="fill:#e1812c;"/>
   </g>
   <g id="patch_75">
    <path clip-path="url(#pe1c266c567)" d="M 151.669565 504 
L 163.314783 504 
L 163.314783 471.388076 
L 151.669565 471.388076 
z
" style="fill:#e1812c;"/>
   </g>
   <g id="patch_76">
    <path clip-path="url(#pe1c266c567)" d="M 180.782609 504 
L 192.427826 504 
L 192.427826 452.117394 
L 180.782609 452.117394 
z
" style="fill:#e1812c;"/>
   </g>
   <g id="patch_77">
    <path clip-path="url(#pe1c266c567)" d="M 209.895652 504 
L 221.54087 504 
L 221.54087 443.223233 
L 209.895652 443.223233 
z
" style="fill:#e1812c;"/>
   </g>
   <g id="patch_78">
    <path clip-path="url(#pe1c266c567)" d="M 239.008696 504 
L 250.653913 504 
L 250.653913 441.740873 
L 239.008696 441.740873 
z
" style="fill:#e1812c;"/>
   </g>
   <g id="matplotlib.axis_9">
    <g id="xtick_18">
     <g id="line2d_49">
      <g>
       <use style="stroke:#000000;stroke-width:0.8;" x="122.556522" xlink:href="#m8f53496a68" y="504"/>
      </g>
     </g>
     <g id="text_69">
      <!-- 1 -->
      <g transform="translate(119.375272 518.598437)scale(0.1 -0.1)">
       <use xlink:href="#DejaVuSans-49"/>
      </g>
     </g>
    </g>
    <g id="xtick_19">
     <g id="line2d_50">
      <g>
       <use style="stroke:#000000;stroke-width:0.8;" x="151.669565" xlink:href="#m8f53496a68" y="504"/>
      </g>
     </g>
     <g id="text_70">
      <!-- 2 -->
      <g transform="translate(148.488315 518.598437)scale(0.1 -0.1)">
       <use xlink:href="#DejaVuSans-50"/>
      </g>
     </g>
    </g>
    <g id="xtick_20">
     <g id="line2d_51">
      <g>
       <use style="stroke:#000000;stroke-width:0.8;" x="180.782609" xlink:href="#m8f53496a68" y="504"/>
      </g>
     </g>
     <g id="text_71">
      <!-- 3 -->
      <g transform="translate(177.601359 518.598437)scale(0.1 -0.1)">
       <use xlink:href="#DejaVuSans-51"/>
      </g>
     </g>
    </g>
    <g id="xtick_21">
     <g id="line2d_52">
      <g>
       <use style="stroke:#000000;stroke-width:0.8;" x="209.895652" xlink:href="#m8f53496a68" y="504"/>
      </g>
     </g>
     <g id="text_72">
      <!-- 4 -->
      <g transform="translate(206.714402 518.598437)scale(0.1 -0.1)">
       <use xlink:href="#DejaVuSans-52"/>
      </g>
     </g>
    </g>
    <g id="xtick_22">
     <g id="line2d_53">
      <g>
       <use style="stroke:#000000;stroke-width:0.8;" x="239.008696" xlink:href="#m8f53496a68" y="504"/>
      </g>
     </g>
     <g id="text_73">
      <!-- 5 -->
      <g transform="translate(235.827446 518.598437)scale(0.1 -0.1)">
       <use xlink:href="#DejaVuSans-53"/>
      </g>
     </g>
    </g>
    <g id="text_74">
     <!-- income -->
     <defs>
      <path d="M 52 44.1875 
Q 55.375 50.25 60.0625 53.125 
Q 64.75 56 71.09375 56 
Q 79.640625 56 84.28125 50.015625 
Q 88.921875 44.046875 88.921875 33.015625 
L 88.921875 0 
L 79.890625 0 
L 79.890625 32.71875 
Q 79.890625 40.578125 77.09375 44.375 
Q 74.3125 48.1875 68.609375 48.1875 
Q 61.625 48.1875 57.5625 43.546875 
Q 53.515625 38.921875 53.515625 30.90625 
L 53.515625 0 
L 44.484375 0 
L 44.484375 32.71875 
Q 44.484375 40.625 41.703125 44.40625 
Q 38.921875 48.1875 33.109375 48.1875 
Q 26.21875 48.1875 22.15625 43.53125 
Q 18.109375 38.875 18.109375 30.90625 
L 18.109375 0 
L 9.078125 0 
L 9.078125 54.6875 
L 18.109375 54.6875 
L 18.109375 46.1875 
Q 21.1875 51.21875 25.484375 53.609375 
Q 29.78125 56 35.6875 56 
Q 41.65625 56 45.828125 52.96875 
Q 50 49.953125 52 44.1875 
z
" id="DejaVuSans-109"/>
     </defs>
     <g transform="translate(162.469327 532.276562)scale(0.1 -0.1)">
      <use xlink:href="#DejaVuSans-105"/>
      <use x="27.783203" xlink:href="#DejaVuSans-110"/>
      <use x="91.162109" xlink:href="#DejaVuSans-99"/>
      <use x="146.142578" xlink:href="#DejaVuSans-111"/>
      <use x="207.324219" xlink:href="#DejaVuSans-109"/>
      <use x="304.736328" xlink:href="#DejaVuSans-101"/>
     </g>
    </g>
   </g>
   <g id="matplotlib.axis_10">
    <g id="ytick_32">
     <g id="line2d_54">
      <g>
       <use style="stroke:#000000;stroke-width:0.8;" x="108" xlink:href="#mb02ba61362" y="504"/>
      </g>
     </g>
     <g id="text_75">
      <!-- 0 -->
      <g transform="translate(94.6375 507.799219)scale(0.1 -0.1)">
       <use xlink:href="#DejaVuSans-48"/>
      </g>
     </g>
    </g>
    <g id="ytick_33">
     <g id="line2d_55">
      <g>
       <use style="stroke:#000000;stroke-width:0.8;" x="108" xlink:href="#mb02ba61362" y="474.352797"/>
      </g>
     </g>
     <g id="text_76">
      <!-- 20 -->
      <g transform="translate(88.275 478.152016)scale(0.1 -0.1)">
       <use xlink:href="#DejaVuSans-50"/>
       <use x="63.623047" xlink:href="#DejaVuSans-48"/>
      </g>
     </g>
    </g>
    <g id="ytick_34">
     <g id="line2d_56">
      <g>
       <use style="stroke:#000000;stroke-width:0.8;" x="108" xlink:href="#mb02ba61362" y="444.705594"/>
      </g>
     </g>
     <g id="text_77">
      <!-- 40 -->
      <g transform="translate(88.275 448.504812)scale(0.1 -0.1)">
       <use xlink:href="#DejaVuSans-52"/>
       <use x="63.623047" xlink:href="#DejaVuSans-48"/>
      </g>
     </g>
    </g>
    <g id="ytick_35">
     <g id="line2d_57">
      <g>
       <use style="stroke:#000000;stroke-width:0.8;" x="108" xlink:href="#mb02ba61362" y="415.05839"/>
      </g>
     </g>
     <g id="text_78">
      <!-- 60 -->
      <defs>
       <path d="M 33.015625 40.375 
Q 26.375 40.375 22.484375 35.828125 
Q 18.609375 31.296875 18.609375 23.390625 
Q 18.609375 15.53125 22.484375 10.953125 
Q 26.375 6.390625 33.015625 6.390625 
Q 39.65625 6.390625 43.53125 10.953125 
Q 47.40625 15.53125 47.40625 23.390625 
Q 47.40625 31.296875 43.53125 35.828125 
Q 39.65625 40.375 33.015625 40.375 
z
M 52.59375 71.296875 
L 52.59375 62.3125 
Q 48.875 64.0625 45.09375 64.984375 
Q 41.3125 65.921875 37.59375 65.921875 
Q 27.828125 65.921875 22.671875 59.328125 
Q 17.53125 52.734375 16.796875 39.40625 
Q 19.671875 43.65625 24.015625 45.921875 
Q 28.375 48.1875 33.59375 48.1875 
Q 44.578125 48.1875 50.953125 41.515625 
Q 57.328125 34.859375 57.328125 23.390625 
Q 57.328125 12.15625 50.6875 5.359375 
Q 44.046875 -1.421875 33.015625 -1.421875 
Q 20.359375 -1.421875 13.671875 8.265625 
Q 6.984375 17.96875 6.984375 36.375 
Q 6.984375 53.65625 15.1875 63.9375 
Q 23.390625 74.21875 37.203125 74.21875 
Q 40.921875 74.21875 44.703125 73.484375 
Q 48.484375 72.75 52.59375 71.296875 
z
" id="DejaVuSans-54"/>
      </defs>
      <g transform="translate(88.275 418.857609)scale(0.1 -0.1)">
       <use xlink:href="#DejaVuSans-54"/>
       <use x="63.623047" xlink:href="#DejaVuSans-48"/>
      </g>
     </g>
    </g>
    <g id="ytick_36">
     <g id="line2d_58">
      <g>
       <use style="stroke:#000000;stroke-width:0.8;" x="108" xlink:href="#mb02ba61362" y="385.411187"/>
      </g>
     </g>
     <g id="text_79">
      <!-- 80 -->
      <defs>
       <path d="M 31.78125 34.625 
Q 24.75 34.625 20.71875 30.859375 
Q 16.703125 27.09375 16.703125 20.515625 
Q 16.703125 13.921875 20.71875 10.15625 
Q 24.75 6.390625 31.78125 6.390625 
Q 38.8125 6.390625 42.859375 10.171875 
Q 46.921875 13.96875 46.921875 20.515625 
Q 46.921875 27.09375 42.890625 30.859375 
Q 38.875 34.625 31.78125 34.625 
z
M 21.921875 38.8125 
Q 15.578125 40.375 12.03125 44.71875 
Q 8.5 49.078125 8.5 55.328125 
Q 8.5 64.0625 14.71875 69.140625 
Q 20.953125 74.21875 31.78125 74.21875 
Q 42.671875 74.21875 48.875 69.140625 
Q 55.078125 64.0625 55.078125 55.328125 
Q 55.078125 49.078125 51.53125 44.71875 
Q 48 40.375 41.703125 38.8125 
Q 48.828125 37.15625 52.796875 32.3125 
Q 56.78125 27.484375 56.78125 20.515625 
Q 56.78125 9.90625 50.3125 4.234375 
Q 43.84375 -1.421875 31.78125 -1.421875 
Q 19.734375 -1.421875 13.25 4.234375 
Q 6.78125 9.90625 6.78125 20.515625 
Q 6.78125 27.484375 10.78125 32.3125 
Q 14.796875 37.15625 21.921875 38.8125 
z
M 18.3125 54.390625 
Q 18.3125 48.734375 21.84375 45.5625 
Q 25.390625 42.390625 31.78125 42.390625 
Q 38.140625 42.390625 41.71875 45.5625 
Q 45.3125 48.734375 45.3125 54.390625 
Q 45.3125 60.0625 41.71875 63.234375 
Q 38.140625 66.40625 31.78125 66.40625 
Q 25.390625 66.40625 21.84375 63.234375 
Q 18.3125 60.0625 18.3125 54.390625 
z
" id="DejaVuSans-56"/>
      </defs>
      <g transform="translate(88.275 389.210406)scale(0.1 -0.1)">
       <use xlink:href="#DejaVuSans-56"/>
       <use x="63.623047" xlink:href="#DejaVuSans-48"/>
      </g>
     </g>
    </g>
    <g id="ytick_37">
     <g id="line2d_59">
      <g>
       <use style="stroke:#000000;stroke-width:0.8;" x="108" xlink:href="#mb02ba61362" y="355.763984"/>
      </g>
     </g>
     <g id="text_80">
      <!-- 100 -->
      <g transform="translate(81.9125 359.563203)scale(0.1 -0.1)">
       <use xlink:href="#DejaVuSans-49"/>
       <use x="63.623047" xlink:href="#DejaVuSans-48"/>
       <use x="127.246094" xlink:href="#DejaVuSans-48"/>
      </g>
     </g>
    </g>
    <g id="ytick_38">
     <g id="line2d_60">
      <g>
       <use style="stroke:#000000;stroke-width:0.8;" x="108" xlink:href="#mb02ba61362" y="326.116781"/>
      </g>
     </g>
     <g id="text_81">
      <!-- 120 -->
      <g transform="translate(81.9125 329.916)scale(0.1 -0.1)">
       <use xlink:href="#DejaVuSans-49"/>
       <use x="63.623047" xlink:href="#DejaVuSans-50"/>
       <use x="127.246094" xlink:href="#DejaVuSans-48"/>
      </g>
     </g>
    </g>
    <g id="text_82">
     <!-- count -->
     <g transform="translate(75.832812 419.269886)rotate(-90)scale(0.1 -0.1)">
      <use xlink:href="#DejaVuSans-99"/>
      <use x="54.980469" xlink:href="#DejaVuSans-111"/>
      <use x="116.162109" xlink:href="#DejaVuSans-117"/>
      <use x="179.541016" xlink:href="#DejaVuSans-110"/>
      <use x="242.919922" xlink:href="#DejaVuSans-116"/>
     </g>
    </g>
   </g>
   <g id="patch_79">
    <path d="M 108 504 
L 108 306.327273 
" style="fill:none;stroke:#000000;stroke-linecap:square;stroke-linejoin:miter;stroke-width:0.8;"/>
   </g>
   <g id="patch_80">
    <path d="M 253.565217 504 
L 253.565217 306.327273 
" style="fill:none;stroke:#000000;stroke-linecap:square;stroke-linejoin:miter;stroke-width:0.8;"/>
   </g>
   <g id="patch_81">
    <path d="M 108 504 
L 253.565217 504 
" style="fill:none;stroke:#000000;stroke-linecap:square;stroke-linejoin:miter;stroke-width:0.8;"/>
   </g>
   <g id="patch_82">
    <path d="M 108 306.327273 
L 253.565217 306.327273 
" style="fill:none;stroke:#000000;stroke-linecap:square;stroke-linejoin:miter;stroke-width:0.8;"/>
   </g>
   <g id="legend_5">
    <g id="patch_83">
     <path d="M 115 358.361648 
L 153.3625 358.361648 
Q 155.3625 358.361648 155.3625 356.361648 
L 155.3625 313.327273 
Q 155.3625 311.327273 153.3625 311.327273 
L 115 311.327273 
Q 113 311.327273 113 313.327273 
L 113 356.361648 
Q 113 358.361648 115 358.361648 
z
" style="fill:#ffffff;opacity:0.8;stroke:#cccccc;stroke-linejoin:miter;"/>
    </g>
    <g id="text_83">
     <!-- group -->
     <g transform="translate(119.550781 322.92571)scale(0.1 -0.1)">
      <use xlink:href="#DejaVuSans-103"/>
      <use x="63.476562" xlink:href="#DejaVuSans-114"/>
      <use x="104.558594" xlink:href="#DejaVuSans-111"/>
      <use x="165.740234" xlink:href="#DejaVuSans-117"/>
      <use x="229.119141" xlink:href="#DejaVuSans-112"/>
     </g>
    </g>
    <g id="patch_84">
     <path d="M 117 337.603835 
L 137 337.603835 
L 137 330.603835 
L 117 330.603835 
z
" style="fill:#3274a1;"/>
    </g>
    <g id="text_84">
     <!-- 0 -->
     <g transform="translate(145 337.603835)scale(0.1 -0.1)">
      <use xlink:href="#DejaVuSans-48"/>
     </g>
    </g>
    <g id="patch_85">
     <path d="M 117 352.28196 
L 137 352.28196 
L 137 345.28196 
L 117 345.28196 
z
" style="fill:#e1812c;"/>
    </g>
    <g id="text_85">
     <!-- 1 -->
     <g transform="translate(145 352.28196)scale(0.1 -0.1)">
      <use xlink:href="#DejaVuSans-49"/>
     </g>
    </g>
   </g>
  </g>
  <g id="axes_6">
   <g id="patch_86">
    <path d="M 282.678261 504 
L 428.243478 504 
L 428.243478 306.327273 
L 282.678261 306.327273 
z
" style="fill:#ffffff;"/>
   </g>
   <g id="patch_87">
    <path clip-path="url(#p0d25b202f1)" d="M 285.589565 504 
L 297.234783 504 
L 297.234783 315.74026 
L 285.589565 315.74026 
z
" style="fill:#3274a1;"/>
   </g>
   <g id="patch_88">
    <path clip-path="url(#p0d25b202f1)" d="M 314.702609 504 
L 326.347826 504 
L 326.347826 481.639648 
L 314.702609 481.639648 
z
" style="fill:#3274a1;"/>
   </g>
   <g id="patch_89">
    <path clip-path="url(#p0d25b202f1)" d="M 343.815652 504 
L 355.46087 504 
L 355.46087 460.721899 
L 343.815652 460.721899 
z
" style="fill:#3274a1;"/>
   </g>
   <g id="patch_90">
    <path clip-path="url(#p0d25b202f1)" d="M 372.928696 504 
L 384.573913 504 
L 384.573913 455.672787 
L 372.928696 455.672787 
z
" style="fill:#3274a1;"/>
   </g>
   <g id="patch_91">
    <path clip-path="url(#p0d25b202f1)" d="M 402.041739 504 
L 413.686957 504 
L 413.686957 498.229587 
L 402.041739 498.229587 
z
" style="fill:#3274a1;"/>
   </g>
   <g id="patch_92">
    <path clip-path="url(#p0d25b202f1)" d="M 297.234783 504 
L 308.88 504 
L 308.88 462.885804 
L 297.234783 462.885804 
z
" style="fill:#e1812c;"/>
   </g>
   <g id="patch_93">
    <path clip-path="url(#p0d25b202f1)" d="M 326.347826 504 
L 337.993043 504 
L 337.993043 484.524854 
L 326.347826 484.524854 
z
" style="fill:#e1812c;"/>
   </g>
   <g id="patch_94">
    <path clip-path="url(#p0d25b202f1)" d="M 355.46087 504 
L 367.106087 504 
L 367.106087 478.033139 
L 355.46087 478.033139 
z
" style="fill:#e1812c;"/>
   </g>
   <g id="patch_95">
    <path clip-path="url(#p0d25b202f1)" d="M 384.573913 504 
L 396.21913 504 
L 396.21913 486.68876 
L 384.573913 486.68876 
z
" style="fill:#e1812c;"/>
   </g>
   <g id="patch_96">
    <path clip-path="url(#p0d25b202f1)" d="M 413.686957 504 
L 425.332174 504 
L 425.332174 492.459173 
L 413.686957 492.459173 
z
" style="fill:#e1812c;"/>
   </g>
   <g id="matplotlib.axis_11">
    <g id="xtick_23">
     <g id="line2d_61">
      <g>
       <use style="stroke:#000000;stroke-width:0.8;" x="297.234783" xlink:href="#m8f53496a68" y="504"/>
      </g>
     </g>
     <g id="text_86">
      <!-- 1 -->
      <g transform="translate(294.053533 518.598437)scale(0.1 -0.1)">
       <use xlink:href="#DejaVuSans-49"/>
      </g>
     </g>
    </g>
    <g id="xtick_24">
     <g id="line2d_62">
      <g>
       <use style="stroke:#000000;stroke-width:0.8;" x="326.347826" xlink:href="#m8f53496a68" y="504"/>
      </g>
     </g>
     <g id="text_87">
      <!-- 2 -->
      <g transform="translate(323.166576 518.598437)scale(0.1 -0.1)">
       <use xlink:href="#DejaVuSans-50"/>
      </g>
     </g>
    </g>
    <g id="xtick_25">
     <g id="line2d_63">
      <g>
       <use style="stroke:#000000;stroke-width:0.8;" x="355.46087" xlink:href="#m8f53496a68" y="504"/>
      </g>
     </g>
     <g id="text_88">
      <!-- 3 -->
      <g transform="translate(352.27962 518.598437)scale(0.1 -0.1)">
       <use xlink:href="#DejaVuSans-51"/>
      </g>
     </g>
    </g>
    <g id="xtick_26">
     <g id="line2d_64">
      <g>
       <use style="stroke:#000000;stroke-width:0.8;" x="384.573913" xlink:href="#m8f53496a68" y="504"/>
      </g>
     </g>
     <g id="text_89">
      <!-- 4 -->
      <g transform="translate(381.392663 518.598437)scale(0.1 -0.1)">
       <use xlink:href="#DejaVuSans-52"/>
      </g>
     </g>
    </g>
    <g id="xtick_27">
     <g id="line2d_65">
      <g>
       <use style="stroke:#000000;stroke-width:0.8;" x="413.686957" xlink:href="#m8f53496a68" y="504"/>
      </g>
     </g>
     <g id="text_90">
      <!-- 5 -->
      <g transform="translate(410.505707 518.598437)scale(0.1 -0.1)">
       <use xlink:href="#DejaVuSans-53"/>
      </g>
     </g>
    </g>
    <g id="text_91">
     <!-- companion -->
     <g transform="translate(327.757745 532.276562)scale(0.1 -0.1)">
      <use xlink:href="#DejaVuSans-99"/>
      <use x="54.980469" xlink:href="#DejaVuSans-111"/>
      <use x="116.162109" xlink:href="#DejaVuSans-109"/>
      <use x="213.574219" xlink:href="#DejaVuSans-112"/>
      <use x="277.050781" xlink:href="#DejaVuSans-97"/>
      <use x="338.330078" xlink:href="#DejaVuSans-110"/>
      <use x="401.708984" xlink:href="#DejaVuSans-105"/>
      <use x="429.492188" xlink:href="#DejaVuSans-111"/>
      <use x="490.673828" xlink:href="#DejaVuSans-110"/>
     </g>
    </g>
   </g>
   <g id="matplotlib.axis_12">
    <g id="ytick_39">
     <g id="line2d_66">
      <g>
       <use style="stroke:#000000;stroke-width:0.8;" x="282.678261" xlink:href="#mb02ba61362" y="504"/>
      </g>
     </g>
     <g id="text_92">
      <!-- 0 -->
      <g transform="translate(269.315761 507.799219)scale(0.1 -0.1)">
       <use xlink:href="#DejaVuSans-48"/>
      </g>
     </g>
    </g>
    <g id="ytick_40">
     <g id="line2d_67">
      <g>
       <use style="stroke:#000000;stroke-width:0.8;" x="282.678261" xlink:href="#mb02ba61362" y="467.934916"/>
      </g>
     </g>
     <g id="text_93">
      <!-- 50 -->
      <g transform="translate(262.953261 471.734134)scale(0.1 -0.1)">
       <use xlink:href="#DejaVuSans-53"/>
       <use x="63.623047" xlink:href="#DejaVuSans-48"/>
      </g>
     </g>
    </g>
    <g id="ytick_41">
     <g id="line2d_68">
      <g>
       <use style="stroke:#000000;stroke-width:0.8;" x="282.678261" xlink:href="#mb02ba61362" y="431.869831"/>
      </g>
     </g>
     <g id="text_94">
      <!-- 100 -->
      <g transform="translate(256.590761 435.66905)scale(0.1 -0.1)">
       <use xlink:href="#DejaVuSans-49"/>
       <use x="63.623047" xlink:href="#DejaVuSans-48"/>
       <use x="127.246094" xlink:href="#DejaVuSans-48"/>
      </g>
     </g>
    </g>
    <g id="ytick_42">
     <g id="line2d_69">
      <g>
       <use style="stroke:#000000;stroke-width:0.8;" x="282.678261" xlink:href="#mb02ba61362" y="395.804747"/>
      </g>
     </g>
     <g id="text_95">
      <!-- 150 -->
      <g transform="translate(256.590761 399.603966)scale(0.1 -0.1)">
       <use xlink:href="#DejaVuSans-49"/>
       <use x="63.623047" xlink:href="#DejaVuSans-53"/>
       <use x="127.246094" xlink:href="#DejaVuSans-48"/>
      </g>
     </g>
    </g>
    <g id="ytick_43">
     <g id="line2d_70">
      <g>
       <use style="stroke:#000000;stroke-width:0.8;" x="282.678261" xlink:href="#mb02ba61362" y="359.739663"/>
      </g>
     </g>
     <g id="text_96">
      <!-- 200 -->
      <g transform="translate(256.590761 363.538881)scale(0.1 -0.1)">
       <use xlink:href="#DejaVuSans-50"/>
       <use x="63.623047" xlink:href="#DejaVuSans-48"/>
       <use x="127.246094" xlink:href="#DejaVuSans-48"/>
      </g>
     </g>
    </g>
    <g id="ytick_44">
     <g id="line2d_71">
      <g>
       <use style="stroke:#000000;stroke-width:0.8;" x="282.678261" xlink:href="#mb02ba61362" y="323.674578"/>
      </g>
     </g>
     <g id="text_97">
      <!-- 250 -->
      <g transform="translate(256.590761 327.473797)scale(0.1 -0.1)">
       <use xlink:href="#DejaVuSans-50"/>
       <use x="63.623047" xlink:href="#DejaVuSans-53"/>
       <use x="127.246094" xlink:href="#DejaVuSans-48"/>
      </g>
     </g>
    </g>
    <g id="text_98">
     <!-- count -->
     <g transform="translate(250.511073 419.269886)rotate(-90)scale(0.1 -0.1)">
      <use xlink:href="#DejaVuSans-99"/>
      <use x="54.980469" xlink:href="#DejaVuSans-111"/>
      <use x="116.162109" xlink:href="#DejaVuSans-117"/>
      <use x="179.541016" xlink:href="#DejaVuSans-110"/>
      <use x="242.919922" xlink:href="#DejaVuSans-116"/>
     </g>
    </g>
   </g>
   <g id="patch_97">
    <path d="M 282.678261 504 
L 282.678261 306.327273 
" style="fill:none;stroke:#000000;stroke-linecap:square;stroke-linejoin:miter;stroke-width:0.8;"/>
   </g>
   <g id="patch_98">
    <path d="M 428.243478 504 
L 428.243478 306.327273 
" style="fill:none;stroke:#000000;stroke-linecap:square;stroke-linejoin:miter;stroke-width:0.8;"/>
   </g>
   <g id="patch_99">
    <path d="M 282.678261 504 
L 428.243478 504 
" style="fill:none;stroke:#000000;stroke-linecap:square;stroke-linejoin:miter;stroke-width:0.8;"/>
   </g>
   <g id="patch_100">
    <path d="M 282.678261 306.327273 
L 428.243478 306.327273 
" style="fill:none;stroke:#000000;stroke-linecap:square;stroke-linejoin:miter;stroke-width:0.8;"/>
   </g>
   <g id="legend_6">
    <g id="patch_101">
     <path d="M 382.880978 358.361648 
L 421.243478 358.361648 
Q 423.243478 358.361648 423.243478 356.361648 
L 423.243478 313.327273 
Q 423.243478 311.327273 421.243478 311.327273 
L 382.880978 311.327273 
Q 380.880978 311.327273 380.880978 313.327273 
L 380.880978 356.361648 
Q 380.880978 358.361648 382.880978 358.361648 
z
" style="fill:#ffffff;opacity:0.8;stroke:#cccccc;stroke-linejoin:miter;"/>
    </g>
    <g id="text_99">
     <!-- group -->
     <g transform="translate(387.43176 322.92571)scale(0.1 -0.1)">
      <use xlink:href="#DejaVuSans-103"/>
      <use x="63.476562" xlink:href="#DejaVuSans-114"/>
      <use x="104.558594" xlink:href="#DejaVuSans-111"/>
      <use x="165.740234" xlink:href="#DejaVuSans-117"/>
      <use x="229.119141" xlink:href="#DejaVuSans-112"/>
     </g>
    </g>
    <g id="patch_102">
     <path d="M 384.880978 337.603835 
L 404.880978 337.603835 
L 404.880978 330.603835 
L 384.880978 330.603835 
z
" style="fill:#3274a1;"/>
    </g>
    <g id="text_100">
     <!-- 0 -->
     <g transform="translate(412.880978 337.603835)scale(0.1 -0.1)">
      <use xlink:href="#DejaVuSans-48"/>
     </g>
    </g>
    <g id="patch_103">
     <path d="M 384.880978 352.28196 
L 404.880978 352.28196 
L 404.880978 345.28196 
L 384.880978 345.28196 
z
" style="fill:#e1812c;"/>
    </g>
    <g id="text_101">
     <!-- 1 -->
     <g transform="translate(412.880978 352.28196)scale(0.1 -0.1)">
      <use xlink:href="#DejaVuSans-49"/>
     </g>
    </g>
   </g>
  </g>
  <g id="axes_7">
   <g id="patch_104">
    <path d="M 457.356522 504 
L 602.921739 504 
L 602.921739 306.327273 
L 457.356522 306.327273 
z
" style="fill:#ffffff;"/>
   </g>
   <g id="patch_105">
    <path clip-path="url(#p7edbdd8942)" d="M 460.995652 504 
L 475.552174 504 
L 475.552174 315.74026 
L 460.995652 315.74026 
z
" style="fill:#3274a1;"/>
   </g>
   <g id="patch_106">
    <path clip-path="url(#p7edbdd8942)" d="M 497.386957 504 
L 511.943478 504 
L 511.943478 394.452306 
L 497.386957 394.452306 
z
" style="fill:#3274a1;"/>
   </g>
   <g id="patch_107">
    <path clip-path="url(#p7edbdd8942)" d="M 533.778261 504 
L 548.334783 504 
L 548.334783 465.049709 
L 533.778261 465.049709 
z
" style="fill:#3274a1;"/>
   </g>
   <g id="patch_108">
    <path clip-path="url(#p7edbdd8942)" d="M 570.169565 504 
L 584.726087 504 
L 584.726087 494.262427 
L 570.169565 494.262427 
z
" style="fill:#3274a1;"/>
   </g>
   <g id="patch_109">
    <path clip-path="url(#p7edbdd8942)" d="M 475.552174 504 
L 490.108696 504 
L 490.108696 396.8867 
L 475.552174 396.8867 
z
" style="fill:#e1812c;"/>
   </g>
   <g id="patch_110">
    <path clip-path="url(#p7edbdd8942)" d="M 511.943478 504 
L 526.5 504 
L 526.5 487.770712 
L 511.943478 487.770712 
z
" style="fill:#e1812c;"/>
   </g>
   <g id="patch_111">
    <path clip-path="url(#p7edbdd8942)" d="M 548.334783 504 
L 562.891304 504 
L 562.891304 499.942678 
L 548.334783 499.942678 
z
" style="fill:#e1812c;"/>
   </g>
   <g id="patch_112">
    <path clip-path="url(#p7edbdd8942)" d="M 584.726087 504 
L 599.282609 504 
L 599.282609 501.565607 
L 584.726087 501.565607 
z
" style="fill:#e1812c;"/>
   </g>
   <g id="matplotlib.axis_13">
    <g id="xtick_28">
     <g id="line2d_72">
      <g>
       <use style="stroke:#000000;stroke-width:0.8;" x="475.552174" xlink:href="#m8f53496a68" y="504"/>
      </g>
     </g>
     <g id="text_102">
      <!-- 1 -->
      <g transform="translate(472.370924 518.598437)scale(0.1 -0.1)">
       <use xlink:href="#DejaVuSans-49"/>
      </g>
     </g>
    </g>
    <g id="xtick_29">
     <g id="line2d_73">
      <g>
       <use style="stroke:#000000;stroke-width:0.8;" x="511.943478" xlink:href="#m8f53496a68" y="504"/>
      </g>
     </g>
     <g id="text_103">
      <!-- 2 -->
      <g transform="translate(508.762228 518.598437)scale(0.1 -0.1)">
       <use xlink:href="#DejaVuSans-50"/>
      </g>
     </g>
    </g>
    <g id="xtick_30">
     <g id="line2d_74">
      <g>
       <use style="stroke:#000000;stroke-width:0.8;" x="548.334783" xlink:href="#m8f53496a68" y="504"/>
      </g>
     </g>
     <g id="text_104">
      <!-- 3 -->
      <g transform="translate(545.153533 518.598437)scale(0.1 -0.1)">
       <use xlink:href="#DejaVuSans-51"/>
      </g>
     </g>
    </g>
    <g id="xtick_31">
     <g id="line2d_75">
      <g>
       <use style="stroke:#000000;stroke-width:0.8;" x="584.726087" xlink:href="#m8f53496a68" y="504"/>
      </g>
     </g>
     <g id="text_105">
      <!-- 4 -->
      <g transform="translate(581.544837 518.598437)scale(0.1 -0.1)">
       <use xlink:href="#DejaVuSans-52"/>
      </g>
     </g>
    </g>
    <g id="text_106">
     <!-- selfcare -->
     <defs>
      <path d="M 9.421875 75.984375 
L 18.40625 75.984375 
L 18.40625 0 
L 9.421875 0 
z
" id="DejaVuSans-108"/>
     </defs>
     <g transform="translate(510.364912 532.276562)scale(0.1 -0.1)">
      <use xlink:href="#DejaVuSans-115"/>
      <use x="52.099609" xlink:href="#DejaVuSans-101"/>
      <use x="113.623047" xlink:href="#DejaVuSans-108"/>
      <use x="141.40625" xlink:href="#DejaVuSans-102"/>
      <use x="176.611328" xlink:href="#DejaVuSans-99"/>
      <use x="231.591797" xlink:href="#DejaVuSans-97"/>
      <use x="292.871094" xlink:href="#DejaVuSans-114"/>
      <use x="333.953125" xlink:href="#DejaVuSans-101"/>
     </g>
    </g>
   </g>
   <g id="matplotlib.axis_14">
    <g id="ytick_45">
     <g id="line2d_76">
      <g>
       <use style="stroke:#000000;stroke-width:0.8;" x="457.356522" xlink:href="#mb02ba61362" y="504"/>
      </g>
     </g>
     <g id="text_107">
      <!-- 0 -->
      <g transform="translate(443.994022 507.799219)scale(0.1 -0.1)">
       <use xlink:href="#DejaVuSans-48"/>
      </g>
     </g>
    </g>
    <g id="ytick_46">
     <g id="line2d_77">
      <g>
       <use style="stroke:#000000;stroke-width:0.8;" x="457.356522" xlink:href="#mb02ba61362" y="463.42678"/>
      </g>
     </g>
     <g id="text_108">
      <!-- 50 -->
      <g transform="translate(437.631522 467.225999)scale(0.1 -0.1)">
       <use xlink:href="#DejaVuSans-53"/>
       <use x="63.623047" xlink:href="#DejaVuSans-48"/>
      </g>
     </g>
    </g>
    <g id="ytick_47">
     <g id="line2d_78">
      <g>
       <use style="stroke:#000000;stroke-width:0.8;" x="457.356522" xlink:href="#mb02ba61362" y="422.85356"/>
      </g>
     </g>
     <g id="text_109">
      <!-- 100 -->
      <g transform="translate(431.269022 426.652779)scale(0.1 -0.1)">
       <use xlink:href="#DejaVuSans-49"/>
       <use x="63.623047" xlink:href="#DejaVuSans-48"/>
       <use x="127.246094" xlink:href="#DejaVuSans-48"/>
      </g>
     </g>
    </g>
    <g id="ytick_48">
     <g id="line2d_79">
      <g>
       <use style="stroke:#000000;stroke-width:0.8;" x="457.356522" xlink:href="#mb02ba61362" y="382.28034"/>
      </g>
     </g>
     <g id="text_110">
      <!-- 150 -->
      <g transform="translate(431.269022 386.079559)scale(0.1 -0.1)">
       <use xlink:href="#DejaVuSans-49"/>
       <use x="63.623047" xlink:href="#DejaVuSans-53"/>
       <use x="127.246094" xlink:href="#DejaVuSans-48"/>
      </g>
     </g>
    </g>
    <g id="ytick_49">
     <g id="line2d_80">
      <g>
       <use style="stroke:#000000;stroke-width:0.8;" x="457.356522" xlink:href="#mb02ba61362" y="341.70712"/>
      </g>
     </g>
     <g id="text_111">
      <!-- 200 -->
      <g transform="translate(431.269022 345.506339)scale(0.1 -0.1)">
       <use xlink:href="#DejaVuSans-50"/>
       <use x="63.623047" xlink:href="#DejaVuSans-48"/>
       <use x="127.246094" xlink:href="#DejaVuSans-48"/>
      </g>
     </g>
    </g>
    <g id="text_112">
     <!-- count -->
     <g transform="translate(425.189334 419.269886)rotate(-90)scale(0.1 -0.1)">
      <use xlink:href="#DejaVuSans-99"/>
      <use x="54.980469" xlink:href="#DejaVuSans-111"/>
      <use x="116.162109" xlink:href="#DejaVuSans-117"/>
      <use x="179.541016" xlink:href="#DejaVuSans-110"/>
      <use x="242.919922" xlink:href="#DejaVuSans-116"/>
     </g>
    </g>
   </g>
   <g id="patch_113">
    <path d="M 457.356522 504 
L 457.356522 306.327273 
" style="fill:none;stroke:#000000;stroke-linecap:square;stroke-linejoin:miter;stroke-width:0.8;"/>
   </g>
   <g id="patch_114">
    <path d="M 602.921739 504 
L 602.921739 306.327273 
" style="fill:none;stroke:#000000;stroke-linecap:square;stroke-linejoin:miter;stroke-width:0.8;"/>
   </g>
   <g id="patch_115">
    <path d="M 457.356522 504 
L 602.921739 504 
" style="fill:none;stroke:#000000;stroke-linecap:square;stroke-linejoin:miter;stroke-width:0.8;"/>
   </g>
   <g id="patch_116">
    <path d="M 457.356522 306.327273 
L 602.921739 306.327273 
" style="fill:none;stroke:#000000;stroke-linecap:square;stroke-linejoin:miter;stroke-width:0.8;"/>
   </g>
   <g id="legend_7">
    <g id="patch_117">
     <path d="M 557.559239 358.361648 
L 595.921739 358.361648 
Q 597.921739 358.361648 597.921739 356.361648 
L 597.921739 313.327273 
Q 597.921739 311.327273 595.921739 311.327273 
L 557.559239 311.327273 
Q 555.559239 311.327273 555.559239 313.327273 
L 555.559239 356.361648 
Q 555.559239 358.361648 557.559239 358.361648 
z
" style="fill:#ffffff;opacity:0.8;stroke:#cccccc;stroke-linejoin:miter;"/>
    </g>
    <g id="text_113">
     <!-- group -->
     <g transform="translate(562.11002 322.92571)scale(0.1 -0.1)">
      <use xlink:href="#DejaVuSans-103"/>
      <use x="63.476562" xlink:href="#DejaVuSans-114"/>
      <use x="104.558594" xlink:href="#DejaVuSans-111"/>
      <use x="165.740234" xlink:href="#DejaVuSans-117"/>
      <use x="229.119141" xlink:href="#DejaVuSans-112"/>
     </g>
    </g>
    <g id="patch_118">
     <path d="M 559.559239 337.603835 
L 579.559239 337.603835 
L 579.559239 330.603835 
L 559.559239 330.603835 
z
" style="fill:#3274a1;"/>
    </g>
    <g id="text_114">
     <!-- 0 -->
     <g transform="translate(587.559239 337.603835)scale(0.1 -0.1)">
      <use xlink:href="#DejaVuSans-48"/>
     </g>
    </g>
    <g id="patch_119">
     <path d="M 559.559239 352.28196 
L 579.559239 352.28196 
L 579.559239 345.28196 
L 559.559239 345.28196 
z
" style="fill:#e1812c;"/>
    </g>
    <g id="text_115">
     <!-- 1 -->
     <g transform="translate(587.559239 352.28196)scale(0.1 -0.1)">
      <use xlink:href="#DejaVuSans-49"/>
     </g>
    </g>
   </g>
  </g>
  <g id="axes_8">
   <g id="patch_120">
    <path d="M 632.034783 504 
L 777.6 504 
L 777.6 306.327273 
L 632.034783 306.327273 
z
" style="fill:#ffffff;"/>
   </g>
   <g id="patch_121">
    <path clip-path="url(#p0d493aef93)" d="M 635.673913 504 
L 650.230435 504 
L 650.230435 487.265801 
L 635.673913 487.265801 
z
" style="fill:#3274a1;"/>
   </g>
   <g id="patch_122">
    <path clip-path="url(#p0d493aef93)" d="M 672.065217 504 
L 686.621739 504 
L 686.621739 380.166926 
L 672.065217 380.166926 
z
" style="fill:#3274a1;"/>
   </g>
   <g id="patch_123">
    <path clip-path="url(#p0d493aef93)" d="M 708.456522 504 
L 723.013043 504 
L 723.013043 315.74026 
L 708.456522 315.74026 
z
" style="fill:#3274a1;"/>
   </g>
   <g id="patch_124">
    <path clip-path="url(#p0d493aef93)" d="M 744.847826 504 
L 759.404348 504 
L 759.404348 475.551861 
L 744.847826 475.551861 
z
" style="fill:#3274a1;"/>
   </g>
   <g id="patch_125">
    <path clip-path="url(#p0d493aef93)" d="M 650.230435 504 
L 664.786957 504 
L 664.786957 492.286061 
L 650.230435 492.286061 
z
" style="fill:#e1812c;"/>
   </g>
   <g id="patch_126">
    <path clip-path="url(#p0d493aef93)" d="M 686.621739 504 
L 701.178261 504 
L 701.178261 470.531602 
L 686.621739 470.531602 
z
" style="fill:#e1812c;"/>
   </g>
   <g id="patch_127">
    <path clip-path="url(#p0d493aef93)" d="M 723.013043 504 
L 737.569565 504 
L 737.569565 445.430303 
L 723.013043 445.430303 
z
" style="fill:#e1812c;"/>
   </g>
   <g id="patch_128">
    <path clip-path="url(#p0d493aef93)" d="M 759.404348 504 
L 773.96087 504 
L 773.96087 473.878442 
L 759.404348 473.878442 
z
" style="fill:#e1812c;"/>
   </g>
   <g id="matplotlib.axis_15">
    <g id="xtick_32">
     <g id="line2d_81">
      <g>
       <use style="stroke:#000000;stroke-width:0.8;" x="650.230435" xlink:href="#m8f53496a68" y="504"/>
      </g>
     </g>
     <g id="text_116">
      <!-- 0 -->
      <g transform="translate(647.049185 518.598437)scale(0.1 -0.1)">
       <use xlink:href="#DejaVuSans-48"/>
      </g>
     </g>
    </g>
    <g id="xtick_33">
     <g id="line2d_82">
      <g>
       <use style="stroke:#000000;stroke-width:0.8;" x="686.621739" xlink:href="#m8f53496a68" y="504"/>
      </g>
     </g>
     <g id="text_117">
      <!-- 1 -->
      <g transform="translate(683.440489 518.598437)scale(0.1 -0.1)">
       <use xlink:href="#DejaVuSans-49"/>
      </g>
     </g>
    </g>
    <g id="xtick_34">
     <g id="line2d_83">
      <g>
       <use style="stroke:#000000;stroke-width:0.8;" x="723.013043" xlink:href="#m8f53496a68" y="504"/>
      </g>
     </g>
     <g id="text_118">
      <!-- 2 -->
      <g transform="translate(719.831793 518.598437)scale(0.1 -0.1)">
       <use xlink:href="#DejaVuSans-50"/>
      </g>
     </g>
    </g>
    <g id="xtick_35">
     <g id="line2d_84">
      <g>
       <use style="stroke:#000000;stroke-width:0.8;" x="759.404348" xlink:href="#m8f53496a68" y="504"/>
      </g>
     </g>
     <g id="text_119">
      <!-- 3 -->
      <g transform="translate(756.223098 518.598437)scale(0.1 -0.1)">
       <use xlink:href="#DejaVuSans-51"/>
      </g>
     </g>
    </g>
    <g id="text_120">
     <!-- children -->
     <defs>
      <path d="M 54.890625 33.015625 
L 54.890625 0 
L 45.90625 0 
L 45.90625 32.71875 
Q 45.90625 40.484375 42.875 44.328125 
Q 39.84375 48.1875 33.796875 48.1875 
Q 26.515625 48.1875 22.3125 43.546875 
Q 18.109375 38.921875 18.109375 30.90625 
L 18.109375 0 
L 9.078125 0 
L 9.078125 75.984375 
L 18.109375 75.984375 
L 18.109375 46.1875 
Q 21.34375 51.125 25.703125 53.5625 
Q 30.078125 56 35.796875 56 
Q 45.21875 56 50.046875 50.171875 
Q 54.890625 44.34375 54.890625 33.015625 
z
" id="DejaVuSans-104"/>
     </defs>
     <g transform="translate(684.64786 532.276562)scale(0.1 -0.1)">
      <use xlink:href="#DejaVuSans-99"/>
      <use x="54.980469" xlink:href="#DejaVuSans-104"/>
      <use x="118.359375" xlink:href="#DejaVuSans-105"/>
      <use x="146.142578" xlink:href="#DejaVuSans-108"/>
      <use x="173.925781" xlink:href="#DejaVuSans-100"/>
      <use x="237.402344" xlink:href="#DejaVuSans-114"/>
      <use x="278.484375" xlink:href="#DejaVuSans-101"/>
      <use x="340.007812" xlink:href="#DejaVuSans-110"/>
     </g>
    </g>
   </g>
   <g id="matplotlib.axis_16">
    <g id="ytick_50">
     <g id="line2d_85">
      <g>
       <use style="stroke:#000000;stroke-width:0.8;" x="632.034783" xlink:href="#mb02ba61362" y="504"/>
      </g>
     </g>
     <g id="text_121">
      <!-- 0 -->
      <g transform="translate(618.672283 507.799219)scale(0.1 -0.1)">
       <use xlink:href="#DejaVuSans-48"/>
      </g>
     </g>
    </g>
    <g id="ytick_51">
     <g id="line2d_86">
      <g>
       <use style="stroke:#000000;stroke-width:0.8;" x="632.034783" xlink:href="#mb02ba61362" y="462.164502"/>
      </g>
     </g>
     <g id="text_122">
      <!-- 50 -->
      <g transform="translate(612.309783 465.963721)scale(0.1 -0.1)">
       <use xlink:href="#DejaVuSans-53"/>
       <use x="63.623047" xlink:href="#DejaVuSans-48"/>
      </g>
     </g>
    </g>
    <g id="ytick_52">
     <g id="line2d_87">
      <g>
       <use style="stroke:#000000;stroke-width:0.8;" x="632.034783" xlink:href="#mb02ba61362" y="420.329004"/>
      </g>
     </g>
     <g id="text_123">
      <!-- 100 -->
      <g transform="translate(605.947283 424.128223)scale(0.1 -0.1)">
       <use xlink:href="#DejaVuSans-49"/>
       <use x="63.623047" xlink:href="#DejaVuSans-48"/>
       <use x="127.246094" xlink:href="#DejaVuSans-48"/>
      </g>
     </g>
    </g>
    <g id="ytick_53">
     <g id="line2d_88">
      <g>
       <use style="stroke:#000000;stroke-width:0.8;" x="632.034783" xlink:href="#mb02ba61362" y="378.493506"/>
      </g>
     </g>
     <g id="text_124">
      <!-- 150 -->
      <g transform="translate(605.947283 382.292725)scale(0.1 -0.1)">
       <use xlink:href="#DejaVuSans-49"/>
       <use x="63.623047" xlink:href="#DejaVuSans-53"/>
       <use x="127.246094" xlink:href="#DejaVuSans-48"/>
      </g>
     </g>
    </g>
    <g id="ytick_54">
     <g id="line2d_89">
      <g>
       <use style="stroke:#000000;stroke-width:0.8;" x="632.034783" xlink:href="#mb02ba61362" y="336.658009"/>
      </g>
     </g>
     <g id="text_125">
      <!-- 200 -->
      <g transform="translate(605.947283 340.457227)scale(0.1 -0.1)">
       <use xlink:href="#DejaVuSans-50"/>
       <use x="63.623047" xlink:href="#DejaVuSans-48"/>
       <use x="127.246094" xlink:href="#DejaVuSans-48"/>
      </g>
     </g>
    </g>
    <g id="text_126">
     <!-- count -->
     <g transform="translate(599.867595 419.269886)rotate(-90)scale(0.1 -0.1)">
      <use xlink:href="#DejaVuSans-99"/>
      <use x="54.980469" xlink:href="#DejaVuSans-111"/>
      <use x="116.162109" xlink:href="#DejaVuSans-117"/>
      <use x="179.541016" xlink:href="#DejaVuSans-110"/>
      <use x="242.919922" xlink:href="#DejaVuSans-116"/>
     </g>
    </g>
   </g>
   <g id="patch_129">
    <path d="M 632.034783 504 
L 632.034783 306.327273 
" style="fill:none;stroke:#000000;stroke-linecap:square;stroke-linejoin:miter;stroke-width:0.8;"/>
   </g>
   <g id="patch_130">
    <path d="M 777.6 504 
L 777.6 306.327273 
" style="fill:none;stroke:#000000;stroke-linecap:square;stroke-linejoin:miter;stroke-width:0.8;"/>
   </g>
   <g id="patch_131">
    <path d="M 632.034783 504 
L 777.6 504 
" style="fill:none;stroke:#000000;stroke-linecap:square;stroke-linejoin:miter;stroke-width:0.8;"/>
   </g>
   <g id="patch_132">
    <path d="M 632.034783 306.327273 
L 777.6 306.327273 
" style="fill:none;stroke:#000000;stroke-linecap:square;stroke-linejoin:miter;stroke-width:0.8;"/>
   </g>
   <g id="legend_8">
    <g id="patch_133">
     <path d="M 732.2375 358.361648 
L 770.6 358.361648 
Q 772.6 358.361648 772.6 356.361648 
L 772.6 313.327273 
Q 772.6 311.327273 770.6 311.327273 
L 732.2375 311.327273 
Q 730.2375 311.327273 730.2375 313.327273 
L 730.2375 356.361648 
Q 730.2375 358.361648 732.2375 358.361648 
z
" style="fill:#ffffff;opacity:0.8;stroke:#cccccc;stroke-linejoin:miter;"/>
    </g>
    <g id="text_127">
     <!-- group -->
     <g transform="translate(736.788281 322.92571)scale(0.1 -0.1)">
      <use xlink:href="#DejaVuSans-103"/>
      <use x="63.476562" xlink:href="#DejaVuSans-114"/>
      <use x="104.558594" xlink:href="#DejaVuSans-111"/>
      <use x="165.740234" xlink:href="#DejaVuSans-117"/>
      <use x="229.119141" xlink:href="#DejaVuSans-112"/>
     </g>
    </g>
    <g id="patch_134">
     <path d="M 734.2375 337.603835 
L 754.2375 337.603835 
L 754.2375 330.603835 
L 734.2375 330.603835 
z
" style="fill:#3274a1;"/>
    </g>
    <g id="text_128">
     <!-- 0 -->
     <g transform="translate(762.2375 337.603835)scale(0.1 -0.1)">
      <use xlink:href="#DejaVuSans-48"/>
     </g>
    </g>
    <g id="patch_135">
     <path d="M 734.2375 352.28196 
L 754.2375 352.28196 
L 754.2375 345.28196 
L 734.2375 345.28196 
z
" style="fill:#e1812c;"/>
    </g>
    <g id="text_129">
     <!-- 1 -->
     <g transform="translate(762.2375 352.28196)scale(0.1 -0.1)">
      <use xlink:href="#DejaVuSans-49"/>
     </g>
    </g>
   </g>
  </g>
 </g>
 <defs>
  <clipPath id="pfb0de145b9">
   <rect height="197.672727" width="145.565217" x="108" y="69.12"/>
  </clipPath>
  <clipPath id="p6c636e6129">
   <rect height="197.672727" width="145.565217" x="282.678261" y="69.12"/>
  </clipPath>
  <clipPath id="pbb703a473b">
   <rect height="197.672727" width="145.565217" x="457.356522" y="69.12"/>
  </clipPath>
  <clipPath id="pe4ab7c4c17">
   <rect height="197.672727" width="145.565217" x="632.034783" y="69.12"/>
  </clipPath>
  <clipPath id="pe1c266c567">
   <rect height="197.672727" width="145.565217" x="108" y="306.327273"/>
  </clipPath>
  <clipPath id="p0d25b202f1">
   <rect height="197.672727" width="145.565217" x="282.678261" y="306.327273"/>
  </clipPath>
  <clipPath id="p7edbdd8942">
   <rect height="197.672727" width="145.565217" x="457.356522" y="306.327273"/>
  </clipPath>
  <clipPath id="p0d493aef93">
   <rect height="197.672727" width="145.565217" x="632.034783" y="306.327273"/>
  </clipPath>
 </defs>
</svg>
