<?xml version="1.0" encoding="UTF-8" standalone="no"?>
<!DOCTYPE svg PUBLIC "-//W3C//DTD SVG 1.1//EN"
 "http://www.w3.org/Graphics/SVG/1.1/DTD/svg11.dtd">
<!-- Generated by graphviz version 2.38.0 (20140413.2041)
 -->
<!-- Title: Tree Pages: 1 -->
<svg width="838pt" height="520pt"
 viewBox="0.00 0.00 838.00 520.00" xmlns="http://www.w3.org/2000/svg" xmlns:xlink="http://www.w3.org/1999/xlink">
<g id="graph0" class="graph" transform="scale(1 1) rotate(0) translate(4 516)">
<title>Tree</title>
<polygon fill="white" stroke="none" points="-4,4 -4,-516 834,-516 834,4 -4,4"/>
<!-- 0 -->
<g id="node1" class="node"><title>0</title>
<path fill="#efb083" stroke="black" d="M560,-512C560,-512 454,-512 454,-512 448,-512 442,-506 442,-500 442,-500 442,-441 442,-441 442,-435 448,-429 454,-429 454,-429 560,-429 560,-429 566,-429 572,-435 572,-441 572,-441 572,-500 572,-500 572,-506 566,-512 560,-512"/>
<text text-anchor="start" x="477" y="-496.8" font-family="Helvetica,sans-Serif" font-size="14.00">age ≤ 2.5</text>
<text text-anchor="start" x="469.5" y="-481.8" font-family="Helvetica,sans-Serif" font-size="14.00">gini = 0.397</text>
<text text-anchor="start" x="459.5" y="-466.8" font-family="Helvetica,sans-Serif" font-size="14.00">samples = 410</text>
<text text-anchor="start" x="450" y="-451.8" font-family="Helvetica,sans-Serif" font-size="14.00">value = [298, 112]</text>
<text text-anchor="start" x="464.5" y="-436.8" font-family="Helvetica,sans-Serif" font-size="14.00">class = home</text>
</g>
<!-- 1 -->
<g id="node2" class="node"><title>1</title>
<path fill="#fbece1" stroke="black" d="M453.5,-393C453.5,-393 364.5,-393 364.5,-393 358.5,-393 352.5,-387 352.5,-381 352.5,-381 352.5,-322 352.5,-322 352.5,-316 358.5,-310 364.5,-310 364.5,-310 453.5,-310 453.5,-310 459.5,-310 465.5,-316 465.5,-322 465.5,-322 465.5,-381 465.5,-381 465.5,-387 459.5,-393 453.5,-393"/>
<text text-anchor="start" x="368" y="-377.8" font-family="Helvetica,sans-Serif" font-size="14.00">income ≤ 4.5</text>
<text text-anchor="start" x="371.5" y="-362.8" font-family="Helvetica,sans-Serif" font-size="14.00">gini = 0.497</text>
<text text-anchor="start" x="361.5" y="-347.8" font-family="Helvetica,sans-Serif" font-size="14.00">samples = 168</text>
<text text-anchor="start" x="360.5" y="-332.8" font-family="Helvetica,sans-Serif" font-size="14.00">value = [91, 77]</text>
<text text-anchor="start" x="366.5" y="-317.8" font-family="Helvetica,sans-Serif" font-size="14.00">class = home</text>
</g>
<!-- 0&#45;&gt;1 -->
<g id="edge1" class="edge"><title>0&#45;&gt;1</title>
<path fill="none" stroke="black" d="M472.999,-428.907C465.398,-419.832 457.264,-410.121 449.431,-400.769"/>
<polygon fill="black" stroke="black" points="452.045,-398.439 442.941,-393.021 446.679,-402.934 452.045,-398.439"/>
<text text-anchor="middle" x="440.74" y="-414.224" font-family="Helvetica,sans-Serif" font-size="14.00">True</text>
</g>
<!-- 98 -->
<g id="node15" class="node"><title>98</title>
<path fill="#e9965a" stroke="black" d="M654,-393C654,-393 556,-393 556,-393 550,-393 544,-387 544,-381 544,-381 544,-322 544,-322 544,-316 550,-310 556,-310 556,-310 654,-310 654,-310 660,-310 666,-316 666,-322 666,-322 666,-381 666,-381 666,-387 660,-393 654,-393"/>
<text text-anchor="start" x="552" y="-377.8" font-family="Helvetica,sans-Serif" font-size="14.00">companion ≤ 4.5</text>
<text text-anchor="start" x="567.5" y="-362.8" font-family="Helvetica,sans-Serif" font-size="14.00">gini = 0.247</text>
<text text-anchor="start" x="557.5" y="-347.8" font-family="Helvetica,sans-Serif" font-size="14.00">samples = 242</text>
<text text-anchor="start" x="552" y="-332.8" font-family="Helvetica,sans-Serif" font-size="14.00">value = [207, 35]</text>
<text text-anchor="start" x="562.5" y="-317.8" font-family="Helvetica,sans-Serif" font-size="14.00">class = home</text>
</g>
<!-- 0&#45;&gt;98 -->
<g id="edge14" class="edge"><title>0&#45;&gt;98</title>
<path fill="none" stroke="black" d="M541.001,-428.907C548.602,-419.832 556.736,-410.121 564.569,-400.769"/>
<polygon fill="black" stroke="black" points="567.321,-402.934 571.059,-393.021 561.955,-398.439 567.321,-402.934"/>
<text text-anchor="middle" x="573.26" y="-414.224" font-family="Helvetica,sans-Serif" font-size="14.00">False</text>
</g>
<!-- 2 -->
<g id="node3" class="node"><title>2</title>
<path fill="#f7dac5" stroke="black" d="M261.5,-274C261.5,-274 172.5,-274 172.5,-274 166.5,-274 160.5,-268 160.5,-262 160.5,-262 160.5,-203 160.5,-203 160.5,-197 166.5,-191 172.5,-191 172.5,-191 261.5,-191 261.5,-191 267.5,-191 273.5,-197 273.5,-203 273.5,-203 273.5,-262 273.5,-262 273.5,-268 267.5,-274 261.5,-274"/>
<text text-anchor="start" x="188" y="-258.8" font-family="Helvetica,sans-Serif" font-size="14.00">sex ≤ 0.5</text>
<text text-anchor="start" x="179.5" y="-243.8" font-family="Helvetica,sans-Serif" font-size="14.00">gini = 0.486</text>
<text text-anchor="start" x="169.5" y="-228.8" font-family="Helvetica,sans-Serif" font-size="14.00">samples = 147</text>
<text text-anchor="start" x="168.5" y="-213.8" font-family="Helvetica,sans-Serif" font-size="14.00">value = [86, 61]</text>
<text text-anchor="start" x="174.5" y="-198.8" font-family="Helvetica,sans-Serif" font-size="14.00">class = home</text>
</g>
<!-- 1&#45;&gt;2 -->
<g id="edge2" class="edge"><title>1&#45;&gt;2</title>
<path fill="none" stroke="black" d="M352.432,-316.029C330.461,-302.64 305.155,-287.219 282.408,-273.358"/>
<polygon fill="black" stroke="black" points="284.188,-270.344 273.827,-268.129 280.545,-276.322 284.188,-270.344"/>
</g>
<!-- 87 -->
<g id="node10" class="node"><title>87</title>
<path fill="#77bced" stroke="black" d="M453,-274C453,-274 365,-274 365,-274 359,-274 353,-268 353,-262 353,-262 353,-203 353,-203 353,-197 359,-191 365,-191 365,-191 453,-191 453,-191 459,-191 465,-197 465,-203 465,-203 465,-262 465,-262 465,-268 459,-274 453,-274"/>
<text text-anchor="start" x="366.5" y="-258.8" font-family="Helvetica,sans-Serif" font-size="14.00">children ≤ 1.5</text>
<text text-anchor="start" x="371.5" y="-243.8" font-family="Helvetica,sans-Serif" font-size="14.00">gini = 0.363</text>
<text text-anchor="start" x="365.5" y="-228.8" font-family="Helvetica,sans-Serif" font-size="14.00">samples = 21</text>
<text text-anchor="start" x="364.5" y="-213.8" font-family="Helvetica,sans-Serif" font-size="14.00">value = [5, 16]</text>
<text text-anchor="start" x="361" y="-198.8" font-family="Helvetica,sans-Serif" font-size="14.00">class = outside</text>
</g>
<!-- 1&#45;&gt;87 -->
<g id="edge9" class="edge"><title>1&#45;&gt;87</title>
<path fill="none" stroke="black" d="M409,-309.907C409,-301.649 409,-292.864 409,-284.302"/>
<polygon fill="black" stroke="black" points="412.5,-284.021 409,-274.021 405.5,-284.021 412.5,-284.021"/>
</g>
<!-- 3 -->
<g id="node4" class="node"><title>3</title>
<path fill="#eeab7b" stroke="black" d="M130.5,-155C130.5,-155 35.5,-155 35.5,-155 29.5,-155 23.5,-149 23.5,-143 23.5,-143 23.5,-84 23.5,-84 23.5,-78 29.5,-72 35.5,-72 35.5,-72 130.5,-72 130.5,-72 136.5,-72 142.5,-78 142.5,-84 142.5,-84 142.5,-143 142.5,-143 142.5,-149 136.5,-155 130.5,-155"/>
<text text-anchor="start" x="31.5" y="-139.8" font-family="Helvetica,sans-Serif" font-size="14.00">profession ≤ 2.5</text>
<text text-anchor="start" x="45.5" y="-124.8" font-family="Helvetica,sans-Serif" font-size="14.00">gini = 0.375</text>
<text text-anchor="start" x="39.5" y="-109.8" font-family="Helvetica,sans-Serif" font-size="14.00">samples = 44</text>
<text text-anchor="start" x="34.5" y="-94.8" font-family="Helvetica,sans-Serif" font-size="14.00">value = [33, 11]</text>
<text text-anchor="start" x="40.5" y="-79.8" font-family="Helvetica,sans-Serif" font-size="14.00">class = home</text>
</g>
<!-- 2&#45;&gt;3 -->
<g id="edge3" class="edge"><title>2&#45;&gt;3</title>
<path fill="none" stroke="black" d="M170.509,-190.907C159.7,-181.469 148.102,-171.343 137,-161.649"/>
<polygon fill="black" stroke="black" points="139.243,-158.961 129.408,-155.021 134.639,-164.234 139.243,-158.961"/>
</g>
<!-- 24 -->
<g id="node7" class="node"><title>24</title>
<path fill="#fef8f4" stroke="black" d="M261.5,-155C261.5,-155 172.5,-155 172.5,-155 166.5,-155 160.5,-149 160.5,-143 160.5,-143 160.5,-84 160.5,-84 160.5,-78 166.5,-72 172.5,-72 172.5,-72 261.5,-72 261.5,-72 267.5,-72 273.5,-78 273.5,-84 273.5,-84 273.5,-143 273.5,-143 273.5,-149 267.5,-155 261.5,-155"/>
<text text-anchor="start" x="187" y="-139.8" font-family="Helvetica,sans-Serif" font-size="14.00">age ≤ 1.5</text>
<text text-anchor="start" x="188" y="-124.8" font-family="Helvetica,sans-Serif" font-size="14.00">gini = 0.5</text>
<text text-anchor="start" x="169.5" y="-109.8" font-family="Helvetica,sans-Serif" font-size="14.00">samples = 103</text>
<text text-anchor="start" x="168.5" y="-94.8" font-family="Helvetica,sans-Serif" font-size="14.00">value = [53, 50]</text>
<text text-anchor="start" x="174.5" y="-79.8" font-family="Helvetica,sans-Serif" font-size="14.00">class = home</text>
</g>
<!-- 2&#45;&gt;24 -->
<g id="edge6" class="edge"><title>2&#45;&gt;24</title>
<path fill="none" stroke="black" d="M217,-190.907C217,-182.649 217,-173.864 217,-165.302"/>
<polygon fill="black" stroke="black" points="220.5,-165.021 217,-155.021 213.5,-165.021 220.5,-165.021"/>
</g>
<!-- 4 -->
<g id="node5" class="node"><title>4</title>
<path fill="#c0c0c0" stroke="black" d="M42,-36C42,-36 12,-36 12,-36 6,-36 0,-30 0,-24 0,-24 0,-12 0,-12 0,-6 6,-0 12,-0 12,-0 42,-0 42,-0 48,-0 54,-6 54,-12 54,-12 54,-24 54,-24 54,-30 48,-36 42,-36"/>
<text text-anchor="middle" x="27" y="-14.3" font-family="Helvetica,sans-Serif" font-size="14.00">(...)</text>
</g>
<!-- 3&#45;&gt;4 -->
<g id="edge4" class="edge"><title>3&#45;&gt;4</title>
<path fill="none" stroke="black" d="M58.6005,-71.7615C53.2039,-62.7512 47.6259,-53.4379 42.6864,-45.1906"/>
<polygon fill="black" stroke="black" points="45.5653,-43.1857 37.4244,-36.4051 39.5601,-46.7825 45.5653,-43.1857"/>
</g>
<!-- 21 -->
<g id="node6" class="node"><title>21</title>
<path fill="#c0c0c0" stroke="black" d="M114,-36C114,-36 84,-36 84,-36 78,-36 72,-30 72,-24 72,-24 72,-12 72,-12 72,-6 78,-0 84,-0 84,-0 114,-0 114,-0 120,-0 126,-6 126,-12 126,-12 126,-24 126,-24 126,-30 120,-36 114,-36"/>
<text text-anchor="middle" x="99" y="-14.3" font-family="Helvetica,sans-Serif" font-size="14.00">(...)</text>
</g>
<!-- 3&#45;&gt;21 -->
<g id="edge5" class="edge"><title>3&#45;&gt;21</title>
<path fill="none" stroke="black" d="M89.9713,-71.7615C91.4303,-63.2356 92.9357,-54.4385 94.289,-46.5299"/>
<polygon fill="black" stroke="black" points="97.7846,-46.8522 96.0216,-36.4051 90.8849,-45.6714 97.7846,-46.8522"/>
</g>
<!-- 25 -->
<g id="node8" class="node"><title>25</title>
<path fill="#c0c0c0" stroke="black" d="M217,-36C217,-36 187,-36 187,-36 181,-36 175,-30 175,-24 175,-24 175,-12 175,-12 175,-6 181,-0 187,-0 187,-0 217,-0 217,-0 223,-0 229,-6 229,-12 229,-12 229,-24 229,-24 229,-30 223,-36 217,-36"/>
<text text-anchor="middle" x="202" y="-14.3" font-family="Helvetica,sans-Serif" font-size="14.00">(...)</text>
</g>
<!-- 24&#45;&gt;25 -->
<g id="edge7" class="edge"><title>24&#45;&gt;25</title>
<path fill="none" stroke="black" d="M210.464,-71.7615C209.097,-63.2356 207.685,-54.4385 206.417,-46.5299"/>
<polygon fill="black" stroke="black" points="209.832,-45.7244 204.792,-36.4051 202.921,-46.8333 209.832,-45.7244"/>
</g>
<!-- 74 -->
<g id="node9" class="node"><title>74</title>
<path fill="#c0c0c0" stroke="black" d="M289,-36C289,-36 259,-36 259,-36 253,-36 247,-30 247,-24 247,-24 247,-12 247,-12 247,-6 253,-0 259,-0 259,-0 289,-0 289,-0 295,-0 301,-6 301,-12 301,-12 301,-24 301,-24 301,-30 295,-36 289,-36"/>
<text text-anchor="middle" x="274" y="-14.3" font-family="Helvetica,sans-Serif" font-size="14.00">(...)</text>
</g>
<!-- 24&#45;&gt;74 -->
<g id="edge8" class="edge"><title>24&#45;&gt;74</title>
<path fill="none" stroke="black" d="M241.835,-71.7615C247.328,-62.7512 253.006,-53.4379 258.034,-45.1906"/>
<polygon fill="black" stroke="black" points="261.173,-46.7654 263.389,-36.4051 255.196,-43.1217 261.173,-46.7654"/>
</g>
<!-- 88 -->
<g id="node11" class="node"><title>88</title>
<path fill="#399de5" stroke="black" d="M392,-147.5C392,-147.5 304,-147.5 304,-147.5 298,-147.5 292,-141.5 292,-135.5 292,-135.5 292,-91.5 292,-91.5 292,-85.5 298,-79.5 304,-79.5 304,-79.5 392,-79.5 392,-79.5 398,-79.5 404,-85.5 404,-91.5 404,-91.5 404,-135.5 404,-135.5 404,-141.5 398,-147.5 392,-147.5"/>
<text text-anchor="start" x="319" y="-132.3" font-family="Helvetica,sans-Serif" font-size="14.00">gini = 0.0</text>
<text text-anchor="start" x="308.5" y="-117.3" font-family="Helvetica,sans-Serif" font-size="14.00">samples = 9</text>
<text text-anchor="start" x="307.5" y="-102.3" font-family="Helvetica,sans-Serif" font-size="14.00">value = [0, 9]</text>
<text text-anchor="start" x="300" y="-87.3" font-family="Helvetica,sans-Serif" font-size="14.00">class = outside</text>
</g>
<!-- 87&#45;&gt;88 -->
<g id="edge10" class="edge"><title>87&#45;&gt;88</title>
<path fill="none" stroke="black" d="M387.836,-190.907C382.083,-179.873 375.84,-167.898 370.04,-156.773"/>
<polygon fill="black" stroke="black" points="373.019,-154.916 365.292,-147.667 366.812,-158.152 373.019,-154.916"/>
</g>
<!-- 89 -->
<g id="node12" class="node"><title>89</title>
<path fill="#c6e3f8" stroke="black" d="M522,-155C522,-155 434,-155 434,-155 428,-155 422,-149 422,-143 422,-143 422,-84 422,-84 422,-78 428,-72 434,-72 434,-72 522,-72 522,-72 528,-72 534,-78 534,-84 534,-84 534,-143 534,-143 534,-149 528,-155 522,-155"/>
<text text-anchor="start" x="449" y="-139.8" font-family="Helvetica,sans-Serif" font-size="14.00">sex ≤ 0.5</text>
<text text-anchor="start" x="440.5" y="-124.8" font-family="Helvetica,sans-Serif" font-size="14.00">gini = 0.486</text>
<text text-anchor="start" x="434.5" y="-109.8" font-family="Helvetica,sans-Serif" font-size="14.00">samples = 12</text>
<text text-anchor="start" x="437.5" y="-94.8" font-family="Helvetica,sans-Serif" font-size="14.00">value = [5, 7]</text>
<text text-anchor="start" x="430" y="-79.8" font-family="Helvetica,sans-Serif" font-size="14.00">class = outside</text>
</g>
<!-- 87&#45;&gt;89 -->
<g id="edge11" class="edge"><title>87&#45;&gt;89</title>
<path fill="none" stroke="black" d="M432.939,-190.907C438.077,-182.195 443.561,-172.897 448.871,-163.893"/>
<polygon fill="black" stroke="black" points="452.038,-165.412 454.103,-155.021 446.008,-161.857 452.038,-165.412"/>
</g>
<!-- 90 -->
<g id="node13" class="node"><title>90</title>
<path fill="#c0c0c0" stroke="black" d="M426,-36C426,-36 396,-36 396,-36 390,-36 384,-30 384,-24 384,-24 384,-12 384,-12 384,-6 390,-0 396,-0 396,-0 426,-0 426,-0 432,-0 438,-6 438,-12 438,-12 438,-24 438,-24 438,-30 432,-36 426,-36"/>
<text text-anchor="middle" x="411" y="-14.3" font-family="Helvetica,sans-Serif" font-size="14.00">(...)</text>
</g>
<!-- 89&#45;&gt;90 -->
<g id="edge12" class="edge"><title>89&#45;&gt;90</title>
<path fill="none" stroke="black" d="M448.808,-71.7615C442.212,-62.5574 435.39,-53.0372 429.387,-44.6601"/>
<polygon fill="black" stroke="black" points="432.142,-42.495 423.472,-36.4051 426.452,-46.5723 432.142,-42.495"/>
</g>
<!-- 95 -->
<g id="node14" class="node"><title>95</title>
<path fill="#c0c0c0" stroke="black" d="M498,-36C498,-36 468,-36 468,-36 462,-36 456,-30 456,-24 456,-24 456,-12 456,-12 456,-6 462,-0 468,-0 468,-0 498,-0 498,-0 504,-0 510,-6 510,-12 510,-12 510,-24 510,-24 510,-30 504,-36 498,-36"/>
<text text-anchor="middle" x="483" y="-14.3" font-family="Helvetica,sans-Serif" font-size="14.00">(...)</text>
</g>
<!-- 89&#45;&gt;95 -->
<g id="edge13" class="edge"><title>89&#45;&gt;95</title>
<path fill="none" stroke="black" d="M480.179,-71.7615C480.634,-63.2356 481.105,-54.4385 481.528,-46.5299"/>
<polygon fill="black" stroke="black" points="485.03,-46.5778 482.069,-36.4051 478.04,-46.2039 485.03,-46.5778"/>
</g>
<!-- 99 -->
<g id="node16" class="node"><title>99</title>
<path fill="#e99254" stroke="black" d="M654,-274C654,-274 556,-274 556,-274 550,-274 544,-268 544,-262 544,-262 544,-203 544,-203 544,-197 550,-191 556,-191 556,-191 654,-191 654,-191 660,-191 666,-197 666,-203 666,-203 666,-262 666,-262 666,-268 660,-274 654,-274"/>
<text text-anchor="start" x="562.5" y="-258.8" font-family="Helvetica,sans-Serif" font-size="14.00">children ≤ 0.5</text>
<text text-anchor="start" x="571.5" y="-243.8" font-family="Helvetica,sans-Serif" font-size="14.00">gini = 0.21</text>
<text text-anchor="start" x="557.5" y="-228.8" font-family="Helvetica,sans-Serif" font-size="14.00">samples = 235</text>
<text text-anchor="start" x="552" y="-213.8" font-family="Helvetica,sans-Serif" font-size="14.00">value = [207, 28]</text>
<text text-anchor="start" x="562.5" y="-198.8" font-family="Helvetica,sans-Serif" font-size="14.00">class = home</text>
</g>
<!-- 98&#45;&gt;99 -->
<g id="edge15" class="edge"><title>98&#45;&gt;99</title>
<path fill="none" stroke="black" d="M605,-309.907C605,-301.649 605,-292.864 605,-284.302"/>
<polygon fill="black" stroke="black" points="608.5,-284.021 605,-274.021 601.5,-284.021 608.5,-284.021"/>
</g>
<!-- 142 -->
<g id="node23" class="node"><title>142</title>
<path fill="#399de5" stroke="black" d="M784,-266.5C784,-266.5 696,-266.5 696,-266.5 690,-266.5 684,-260.5 684,-254.5 684,-254.5 684,-210.5 684,-210.5 684,-204.5 690,-198.5 696,-198.5 696,-198.5 784,-198.5 784,-198.5 790,-198.5 796,-204.5 796,-210.5 796,-210.5 796,-254.5 796,-254.5 796,-260.5 790,-266.5 784,-266.5"/>
<text text-anchor="start" x="711" y="-251.3" font-family="Helvetica,sans-Serif" font-size="14.00">gini = 0.0</text>
<text text-anchor="start" x="700.5" y="-236.3" font-family="Helvetica,sans-Serif" font-size="14.00">samples = 7</text>
<text text-anchor="start" x="699.5" y="-221.3" font-family="Helvetica,sans-Serif" font-size="14.00">value = [0, 7]</text>
<text text-anchor="start" x="692" y="-206.3" font-family="Helvetica,sans-Serif" font-size="14.00">class = outside</text>
</g>
<!-- 98&#45;&gt;142 -->
<g id="edge22" class="edge"><title>98&#45;&gt;142</title>
<path fill="none" stroke="black" d="M651.838,-309.907C665.461,-298.101 680.327,-285.217 693.904,-273.45"/>
<polygon fill="black" stroke="black" points="696.466,-275.861 701.73,-266.667 691.881,-270.571 696.466,-275.861"/>
</g>
<!-- 100 -->
<g id="node17" class="node"><title>100</title>
<path fill="#f8e0ce" stroke="black" d="M645.5,-155C645.5,-155 564.5,-155 564.5,-155 558.5,-155 552.5,-149 552.5,-143 552.5,-143 552.5,-84 552.5,-84 552.5,-78 558.5,-72 564.5,-72 564.5,-72 645.5,-72 645.5,-72 651.5,-72 657.5,-78 657.5,-84 657.5,-84 657.5,-143 657.5,-143 657.5,-149 651.5,-155 645.5,-155"/>
<text text-anchor="start" x="561.5" y="-139.8" font-family="Helvetica,sans-Serif" font-size="14.00">selfcare ≤ 2.5</text>
<text text-anchor="start" x="571.5" y="-124.8" font-family="Helvetica,sans-Serif" font-size="14.00">gini = 0.49</text>
<text text-anchor="start" x="561.5" y="-109.8" font-family="Helvetica,sans-Serif" font-size="14.00">samples = 21</text>
<text text-anchor="start" x="560.5" y="-94.8" font-family="Helvetica,sans-Serif" font-size="14.00">value = [12, 9]</text>
<text text-anchor="start" x="562.5" y="-79.8" font-family="Helvetica,sans-Serif" font-size="14.00">class = home</text>
</g>
<!-- 99&#45;&gt;100 -->
<g id="edge16" class="edge"><title>99&#45;&gt;100</title>
<path fill="none" stroke="black" d="M605,-190.907C605,-182.649 605,-173.864 605,-165.302"/>
<polygon fill="black" stroke="black" points="608.5,-165.021 605,-155.021 601.5,-165.021 608.5,-165.021"/>
</g>
<!-- 109 -->
<g id="node20" class="node"><title>109</title>
<path fill="#e88d4c" stroke="black" d="M786,-155C786,-155 688,-155 688,-155 682,-155 676,-149 676,-143 676,-143 676,-84 676,-84 676,-78 682,-72 688,-72 688,-72 786,-72 786,-72 792,-72 798,-78 798,-84 798,-84 798,-143 798,-143 798,-149 792,-155 786,-155"/>
<text text-anchor="start" x="707" y="-139.8" font-family="Helvetica,sans-Serif" font-size="14.00">age ≤ 4.5</text>
<text text-anchor="start" x="699.5" y="-124.8" font-family="Helvetica,sans-Serif" font-size="14.00">gini = 0.162</text>
<text text-anchor="start" x="689.5" y="-109.8" font-family="Helvetica,sans-Serif" font-size="14.00">samples = 214</text>
<text text-anchor="start" x="684" y="-94.8" font-family="Helvetica,sans-Serif" font-size="14.00">value = [195, 19]</text>
<text text-anchor="start" x="694.5" y="-79.8" font-family="Helvetica,sans-Serif" font-size="14.00">class = home</text>
</g>
<!-- 99&#45;&gt;109 -->
<g id="edge19" class="edge"><title>99&#45;&gt;109</title>
<path fill="none" stroke="black" d="M650.797,-190.907C661.342,-181.56 672.65,-171.538 683.491,-161.929"/>
<polygon fill="black" stroke="black" points="686.122,-164.273 691.284,-155.021 681.479,-159.035 686.122,-164.273"/>
</g>
<!-- 101 -->
<g id="node18" class="node"><title>101</title>
<path fill="#c0c0c0" stroke="black" d="M581,-36C581,-36 551,-36 551,-36 545,-36 539,-30 539,-24 539,-24 539,-12 539,-12 539,-6 545,-0 551,-0 551,-0 581,-0 581,-0 587,-0 593,-6 593,-12 593,-12 593,-24 593,-24 593,-30 587,-36 581,-36"/>
<text text-anchor="middle" x="566" y="-14.3" font-family="Helvetica,sans-Serif" font-size="14.00">(...)</text>
</g>
<!-- 100&#45;&gt;101 -->
<g id="edge17" class="edge"><title>100&#45;&gt;101</title>
<path fill="none" stroke="black" d="M588.007,-71.7615C584.33,-62.945 580.532,-53.8384 577.147,-45.7242"/>
<polygon fill="black" stroke="black" points="580.34,-44.287 573.26,-36.4051 573.879,-46.9818 580.34,-44.287"/>
</g>
<!-- 108 -->
<g id="node19" class="node"><title>108</title>
<path fill="#c0c0c0" stroke="black" d="M653,-36C653,-36 623,-36 623,-36 617,-36 611,-30 611,-24 611,-24 611,-12 611,-12 611,-6 617,-0 623,-0 623,-0 653,-0 653,-0 659,-0 665,-6 665,-12 665,-12 665,-24 665,-24 665,-30 659,-36 653,-36"/>
<text text-anchor="middle" x="638" y="-14.3" font-family="Helvetica,sans-Serif" font-size="14.00">(...)</text>
</g>
<!-- 100&#45;&gt;108 -->
<g id="edge18" class="edge"><title>100&#45;&gt;108</title>
<path fill="none" stroke="black" d="M619.378,-71.7615C622.456,-63.0419 625.633,-54.0385 628.473,-45.9921"/>
<polygon fill="black" stroke="black" points="631.829,-46.9999 631.857,-36.4051 625.228,-44.6701 631.829,-46.9999"/>
</g>
<!-- 110 -->
<g id="node21" class="node"><title>110</title>
<path fill="#c0c0c0" stroke="black" d="M746,-36C746,-36 716,-36 716,-36 710,-36 704,-30 704,-24 704,-24 704,-12 704,-12 704,-6 710,-0 716,-0 716,-0 746,-0 746,-0 752,-0 758,-6 758,-12 758,-12 758,-24 758,-24 758,-30 752,-36 746,-36"/>
<text text-anchor="middle" x="731" y="-14.3" font-family="Helvetica,sans-Serif" font-size="14.00">(...)</text>
</g>
<!-- 109&#45;&gt;110 -->
<g id="edge20" class="edge"><title>109&#45;&gt;110</title>
<path fill="none" stroke="black" d="M734.386,-71.7615C733.839,-63.2356 733.274,-54.4385 732.767,-46.5299"/>
<polygon fill="black" stroke="black" points="736.25,-46.1604 732.117,-36.4051 729.265,-46.6087 736.25,-46.1604"/>
</g>
<!-- 137 -->
<g id="node22" class="node"><title>137</title>
<path fill="#c0c0c0" stroke="black" d="M818,-36C818,-36 788,-36 788,-36 782,-36 776,-30 776,-24 776,-24 776,-12 776,-12 776,-6 782,-0 788,-0 788,-0 818,-0 818,-0 824,-0 830,-6 830,-12 830,-12 830,-24 830,-24 830,-30 824,-36 818,-36"/>
<text text-anchor="middle" x="803" y="-14.3" font-family="Helvetica,sans-Serif" font-size="14.00">(...)</text>
</g>
<!-- 109&#45;&gt;137 -->
<g id="edge21" class="edge"><title>109&#45;&gt;137</title>
<path fill="none" stroke="black" d="M765.757,-71.7615C772.254,-62.5574 778.974,-53.0372 784.887,-44.6601"/>
<polygon fill="black" stroke="black" points="787.807,-46.5932 790.714,-36.4051 782.088,-42.5564 787.807,-46.5932"/>
</g>
</g>
</svg>
